<svg width="286" height="384" viewBox="0 0 286 384" fill="none" xmlns="http://www.w3.org/2000/svg">
<path d="M115.666 368.47C120.455 369.043 125.015 371.701 123.892 377.842H86.7925C88.007 371.793 83.424 369.043 78.566 368.47C76.1464 368.157 73.7556 367.651 71.4165 366.958V366.66C71.4165 366.224 71.4165 364.07 71.4165 360.542H91.9026C93.7129 360.954 105.675 367.21 115.666 368.47Z" fill="#0C0C0C"/>
<path d="M86.7928 377.842L33.9048 378.072C33.9048 377.361 33.9048 370.899 33.7673 360.542H54.8033C56.2241 360.839 63.5798 364.643 71.4397 366.935C73.7788 367.628 76.1696 368.134 78.5892 368.447C83.4243 369.043 88.0073 371.793 86.7928 377.842Z" fill="#0C0C0C"/>
<path d="M56.6136 172.432C64.3589 173.165 70.3627 168.445 73.6166 165.328L73.7541 165.466C80.6286 165.855 87.1136 167.482 89.7947 171.63H89.978C95.638 165.191 108.448 163.22 114.36 168.399H114.726C115.253 166.657 116.262 163.151 117.499 158.935H117.797C120.088 176.282 121.83 192.139 121.967 199.517L32.0486 199.93C32.2549 195.736 33.3319 182.469 34.3402 167.597L34.4547 167.299C35.6005 167.688 36.7462 168.055 37.892 168.399C44.0134 170.246 50.2744 171.595 56.6136 172.432Z" fill="#0C0C0C"/>
<path d="M36.4941 126.304C33.3183 129.899 30.3278 133.655 27.5343 137.555C25.5407 140.923 29.23 145.025 35.1192 149.012V148.875C35.8525 138.746 36.3108 130.68 36.4941 126.304ZM44.1707 154.1V154.466C44.1707 154.466 37.7086 158.041 38.0065 167.849L37.8232 168.444C36.7004 168.101 35.5317 167.734 34.3859 167.344C20.339 162.555 4.43592 153.733 2.14441 138.059C1.25073 131.826 4.688 126.876 7.41489 121.285C10.8292 114.227 30.6279 88.5395 35.463 84.621C40.9397 80.038 59.6613 77.3798 59.6613 77.3798C60.0833 75.5489 61.1383 73.9258 62.6402 72.7968C64.9318 71.7656 78.2225 71.3761 85.8074 72.2239C86.2484 72.2729 86.676 72.405 87.0677 72.6135C87.9314 73.1009 88.6717 73.7799 89.2318 74.5982C89.792 75.4166 90.157 76.3525 90.2988 77.334L129.254 69.9095C121.624 55.1293 116.262 46.3986 106.339 29.1894V29.0061C107.089 27.2319 108.309 25.6963 109.868 24.5654C111.427 23.4346 113.265 22.7514 115.185 22.5898C119.538 27.3333 157.738 69.2908 153.132 75.8903C147.632 83.819 109.593 100.891 109.593 100.891C110.579 107.124 111.885 115.465 113.466 125.639V125.799C105.171 125.799 96.6004 128.549 94.0568 134.507H93.8277C89.6113 121.514 56.7052 122.018 55.0783 126.601C54.62 127.839 54.4825 140.717 54.5741 151.625H54.4137C53.0843 151.706 51.807 152.171 50.7371 152.964C49.6672 153.758 48.8508 154.845 48.3871 156.093C47.0351 155.474 45.5914 154.787 44.1707 154.1Z" fill="#0C0C0C"/>
<path d="M33.7898 382.38H86.6778V378.026H33.7898V382.38Z" stroke="#0C0C0C" stroke-width="2.6488" stroke-linecap="round" stroke-linejoin="round"/>
<path d="M123.8 378.049H86.7697V382.403H123.8V378.049Z" stroke="#0C0C0C" stroke-width="2.6488" stroke-linecap="round" stroke-linejoin="round"/>
<path d="M116.262 368.493V326.353H194.998V351.353" stroke="#0C0C0C" stroke-width="2.6488" stroke-miterlimit="10" stroke-linecap="round"/>
<path d="M194.998 372.961V382.402H116.262" stroke="#0C0C0C" stroke-width="2.6488" stroke-miterlimit="10" stroke-linecap="round"/>
<path d="M264.957 339.712C256.188 331.959 245.209 327.15 233.564 325.963" stroke="#0C0C0C" stroke-width="2.6488" stroke-miterlimit="10" stroke-linecap="round"/>
<path d="M265.691 366.958C267.529 371.741 268.469 376.821 268.464 381.945H284C284.017 371.925 281.334 362.085 276.232 353.461" stroke="#0C0C0C" stroke-width="2.6488" stroke-miterlimit="10" stroke-linecap="round"/>
<path d="M233.472 341.614C242.42 342.706 250.721 346.84 256.983 353.324" stroke="#0C0C0C" stroke-width="2.6488" stroke-miterlimit="10" stroke-linecap="round"/>
<path d="M240.851 327.842L237.757 342.095" stroke="#0C0C0C" stroke-width="2.6488" stroke-miterlimit="10" stroke-linecap="round"/>
<path d="M253.821 332.379L247.473 346.059" stroke="#0C0C0C" stroke-width="2.6488" stroke-miterlimit="10" stroke-linecap="round"/>
<path d="M264.087 339.071L254.852 351.308" stroke="#0C0C0C" stroke-width="2.6488" stroke-miterlimit="10" stroke-linecap="round"/>
<path d="M267.982 364.598L280.058 361.322" stroke="#0C0C0C" stroke-width="2.6488" stroke-miterlimit="10" stroke-linecap="round"/>
<path d="M267.936 374.428L282.969 373.191" stroke="#0C0C0C" stroke-width="2.6488" stroke-miterlimit="10" stroke-linecap="round"/>
<path d="M178.911 355.753C186.887 368.127 199.399 376.878 213.758 380.126C228.116 383.374 243.176 380.859 255.701 373.121C268.225 365.384 277.214 353.042 280.736 338.748C284.258 324.454 282.032 309.348 274.536 296.678L261.314 304.836C264.263 309.38 266.275 314.467 267.232 319.799C268.189 325.131 268.071 330.601 266.885 335.887C265.699 341.173 263.469 346.168 260.326 350.58C257.183 354.993 253.19 358.733 248.582 361.581C243.974 364.429 238.843 366.328 233.491 367.166C228.14 368.005 222.674 367.766 217.416 366.463C212.157 365.16 207.212 362.82 202.871 359.58C198.529 356.34 194.879 352.266 192.133 347.596L178.911 355.753Z" stroke="#0C0C0C" stroke-width="2.6488" stroke-miterlimit="10" stroke-linecap="round"/>
<path d="M279.852 309.029L265.668 313.589" stroke="#0C0C0C" stroke-width="2.6488" stroke-miterlimit="10" stroke-linecap="round"/>
<path d="M282.441 323.786L267.73 324.359" stroke="#0C0C0C" stroke-width="2.6488" stroke-miterlimit="10" stroke-linecap="round"/>
<path d="M281.731 337.49L266.745 333.961" stroke="#0C0C0C" stroke-width="2.6488" stroke-miterlimit="10" stroke-linecap="round"/>
<path d="M277.469 350.23L263.468 344.112" stroke="#0C0C0C" stroke-width="2.6488" stroke-miterlimit="10" stroke-linecap="round"/>
<path d="M268.83 363.521L257.739 352.98" stroke="#0C0C0C" stroke-width="2.6488" stroke-miterlimit="10" stroke-linecap="round"/>
<path d="M257.212 373.306L249.536 360.29" stroke="#0C0C0C" stroke-width="2.6488" stroke-miterlimit="10" stroke-linecap="round"/>
<path d="M244.059 379.103L239.201 365.354" stroke="#0C0C0C" stroke-width="2.6488" stroke-miterlimit="10" stroke-linecap="round"/>
<path d="M230.63 382.059L228.866 367.073" stroke="#0C0C0C" stroke-width="2.6488" stroke-miterlimit="10" stroke-linecap="round"/>
<path d="M218.394 381.761L219.814 366.5" stroke="#0C0C0C" stroke-width="2.6488" stroke-miterlimit="10" stroke-linecap="round"/>
<path d="M205.722 378.347L211.061 363.911" stroke="#0C0C0C" stroke-width="2.6488" stroke-miterlimit="10" stroke-linecap="round"/>
<path d="M203.408 359.969L193.119 371.243" stroke="#0C0C0C" stroke-width="2.6488" stroke-miterlimit="10" stroke-linecap="round"/>
<path d="M196.533 353.69L184.388 362.673" stroke="#0C0C0C" stroke-width="2.6488" stroke-miterlimit="10" stroke-linecap="round"/>
<path d="M159.319 264.871C139.129 268.97 121.17 280.398 108.906 296.952" stroke="#0C0C0C" stroke-width="2.6488" stroke-miterlimit="10" stroke-linecap="round"/>
<path d="M148.251 292.851C151.848 290.953 155.624 289.417 159.525 288.268" stroke="#0C0C0C" stroke-width="2.6488" stroke-miterlimit="10" stroke-linecap="round"/>
<path d="M119.034 326.376C122.969 315.179 130.148 305.406 139.658 298.305" stroke="#0C0C0C" stroke-width="2.6488" stroke-miterlimit="10" stroke-linecap="round"/>
<path d="M110.487 367.462L116.216 365.606" stroke="#0C0C0C" stroke-width="2.6488" stroke-miterlimit="10" stroke-linecap="round"/>
<path d="M95.2021 349.886L115.115 349.038" stroke="#0C0C0C" stroke-width="2.6488" stroke-miterlimit="10" stroke-linecap="round"/>
<path d="M100.587 331.051L116.17 334.809" stroke="#0C0C0C" stroke-width="2.6488" stroke-miterlimit="10" stroke-linecap="round"/>
<path d="M105.331 312.673L121.417 319.868" stroke="#0C0C0C" stroke-width="2.6488" stroke-miterlimit="10" stroke-linecap="round"/>
<path d="M113.58 291.223L129.896 306.76" stroke="#0C0C0C" stroke-width="2.6488" stroke-miterlimit="10" stroke-linecap="round"/>
<path d="M130.675 276.696L140.552 293.469" stroke="#0C0C0C" stroke-width="2.6488" stroke-miterlimit="10" stroke-linecap="round"/>
<path d="M150.13 268.148L157.28 288.451" stroke="#0C0C0C" stroke-width="2.6488" stroke-miterlimit="10" stroke-linecap="round"/>
<path d="M134.662 345.349L127.788 352.224" stroke="#0C0C0C" stroke-width="2.6488" stroke-miterlimit="10" stroke-linecap="round"/>
<path d="M127.696 345.349L134.571 352.224" stroke="#0C0C0C" stroke-width="2.6488" stroke-miterlimit="10" stroke-linecap="round"/>
<path d="M193.417 183.89C190.841 183.89 188.324 184.654 186.183 186.085C184.042 187.516 182.374 189.55 181.389 191.93C180.405 194.309 180.149 196.928 180.653 199.453C181.157 201.979 182.399 204.298 184.221 206.117C186.044 207.936 188.365 209.174 190.891 209.674C193.418 210.174 196.036 209.912 198.413 208.924C200.791 207.935 202.823 206.263 204.25 204.12C205.677 201.976 206.437 199.458 206.432 196.883C206.432 195.174 206.096 193.483 205.441 191.905C204.787 190.327 203.828 188.894 202.619 187.687C201.41 186.48 199.975 185.524 198.396 184.872C196.817 184.22 195.125 183.887 193.417 183.89ZM200.589 204.032C200.497 204.128 200.387 204.204 200.265 204.256C200.143 204.308 200.011 204.335 199.879 204.335C199.746 204.335 199.615 204.308 199.493 204.256C199.371 204.204 199.26 204.128 199.168 204.032C197.839 202.68 195.639 200.48 193.417 198.28L187.665 204.032C187.579 204.128 187.473 204.205 187.354 204.256C187.235 204.308 187.107 204.333 186.977 204.33C186.783 204.325 186.595 204.264 186.435 204.154C186.275 204.044 186.149 203.891 186.074 203.712C185.999 203.533 185.978 203.336 186.012 203.144C186.046 202.953 186.135 202.776 186.267 202.634C186.84 202.084 189.361 199.541 192.019 196.883L186.29 191.154C186.195 191.065 186.119 190.958 186.065 190.84C186.012 190.722 185.982 190.594 185.978 190.464C185.973 190.335 185.995 190.205 186.04 190.084C186.086 189.962 186.155 189.851 186.244 189.756C186.333 189.661 186.44 189.585 186.558 189.531C186.676 189.478 186.804 189.448 186.934 189.444C187.063 189.439 187.193 189.461 187.314 189.506C187.436 189.552 187.547 189.621 187.642 189.71C187.848 189.893 190.529 192.597 193.417 195.485L199.191 189.71C199.379 189.529 199.63 189.429 199.89 189.429C200.151 189.429 200.401 189.529 200.589 189.71C200.681 189.802 200.754 189.911 200.804 190.031C200.854 190.15 200.88 190.279 200.88 190.409C200.88 190.539 200.854 190.668 200.804 190.787C200.754 190.907 200.681 191.016 200.589 191.108L194.837 196.837L200.612 202.588C200.785 202.789 200.875 203.048 200.862 203.312C200.849 203.577 200.735 203.826 200.543 204.009L200.589 204.032Z" fill="#0C0C0C"/>
<path d="M169.402 345.349L162.527 352.224" stroke="#0C0C0C" stroke-width="2.6488" stroke-miterlimit="10" stroke-linecap="round"/>
<path d="M162.412 345.349L169.287 352.224" stroke="#0C0C0C" stroke-width="2.6488" stroke-miterlimit="10" stroke-linecap="round"/>
<path d="M159.731 326.329V265.49H233.472V365.881" stroke="#0C0C0C" stroke-width="2.6488" stroke-miterlimit="10" stroke-linecap="round"/>
<path d="M271.534 298.305C274.307 297.205 279.05 288.955 275.132 281.875C270.892 274.175 263.857 274.565 260.97 276.008C263.262 281.325 269.013 293.63 271.351 298.351" stroke="#0C0C0C" stroke-width="2.6488" stroke-miterlimit="10" stroke-linecap="round"/>
<path d="M252.996 280.637C250.223 281.76 245.48 289.987 249.398 297.067C253.637 304.767 260.672 304.377 263.56 302.956C261.268 297.64 255.516 285.312 253.179 280.614" stroke="#0C0C0C" stroke-width="2.6488" stroke-miterlimit="10" stroke-linecap="round"/>
<path d="M125.611 363.108C127.719 363.108 127.719 377.247 129.827 377.247C131.935 377.247 131.935 363.108 134.066 363.108C136.197 363.108 136.174 377.247 138.283 377.247C140.391 377.247 140.391 363.108 142.499 363.108C144.607 363.108 144.607 377.247 146.715 377.247C148.824 377.247 148.846 363.108 150.955 363.108C153.063 363.108 153.063 377.247 155.194 377.247C157.325 377.247 157.302 363.108 159.41 363.108C161.518 363.108 161.541 377.247 163.65 377.247C165.758 377.247 165.781 363.108 167.889 363.108C169.997 363.108 170.02 377.247 172.128 377.247" stroke="#0C0C0C" stroke-width="2.6488" stroke-miterlimit="10" stroke-linecap="round"/>
<path d="M173.32 326.192L185.969 301.97" stroke="#0C0C0C" stroke-width="2.6488" stroke-miterlimit="10" stroke-linecap="round"/>
<path d="M187.367 301.856C190.202 301.856 192.5 299.558 192.5 296.723C192.5 293.888 190.202 291.59 187.367 291.59C184.532 291.59 182.234 293.888 182.234 296.723C182.234 299.558 184.532 301.856 187.367 301.856Z" stroke="#0C0C0C" stroke-width="2.6488" stroke-miterlimit="10" stroke-linecap="round"/>
<path d="M130.606 326.192L143.256 301.97" stroke="#0C0C0C" stroke-width="2.6488" stroke-miterlimit="10" stroke-linecap="round"/>
<path d="M144.653 301.856C147.488 301.856 149.786 299.558 149.786 296.723C149.786 293.888 147.488 291.59 144.653 291.59C141.818 291.59 139.52 293.888 139.52 296.723C139.52 299.558 141.818 301.856 144.653 301.856Z" stroke="#0C0C0C" stroke-width="2.6488" stroke-miterlimit="10" stroke-linecap="round"/>
<path d="M202.514 357.998V292.461H233.22" stroke="#0C0C0C" stroke-width="2.6488" stroke-miterlimit="10" stroke-linecap="round"/>
<path d="M187.734 265.491C187.734 265.491 157.944 228.437 157.348 227.91C156.409 226.902 144.699 233.891 148.045 247.96C151.39 262.03 159.961 265.376 159.961 265.376" stroke="#0C0C0C" stroke-width="2.6488" stroke-miterlimit="10" stroke-linecap="round"/>
<path d="M182.921 259.097C183.766 258.526 184.795 258.296 185.803 258.454C186.81 258.611 187.72 259.144 188.35 259.946C188.98 260.747 189.284 261.757 189.199 262.773C189.114 263.789 188.648 264.736 187.894 265.422" stroke="#0C0C0C" stroke-width="2.6488" stroke-miterlimit="10" stroke-linecap="round"/>
<path d="M177.972 252.795C178.816 252.224 179.846 251.994 180.853 252.152C181.86 252.309 182.771 252.842 183.401 253.644C184.031 254.445 184.334 255.455 184.249 256.471C184.165 257.487 183.698 258.434 182.944 259.12" stroke="#0C0C0C" stroke-width="2.6488" stroke-miterlimit="10" stroke-linecap="round"/>
<path d="M173.022 246.517C173.867 245.946 174.896 245.716 175.904 245.874C176.911 246.031 177.821 246.564 178.451 247.366C179.081 248.167 179.385 249.177 179.3 250.193C179.215 251.209 178.749 252.155 177.995 252.842" stroke="#0C0C0C" stroke-width="2.6488" stroke-miterlimit="10" stroke-linecap="round"/>
<path d="M168.072 240.215C168.917 239.645 169.946 239.415 170.954 239.572C171.961 239.73 172.871 240.263 173.501 241.064C174.131 241.865 174.435 242.876 174.35 243.892C174.265 244.908 173.799 245.854 173.045 246.54" stroke="#0C0C0C" stroke-width="2.6488" stroke-miterlimit="10" stroke-linecap="round"/>
<path d="M163.1 233.936C163.939 233.259 165.012 232.942 166.084 233.056C167.157 233.17 168.14 233.705 168.817 234.543C169.495 235.382 169.812 236.456 169.698 237.528C169.584 238.6 169.049 239.583 168.21 240.261" stroke="#0C0C0C" stroke-width="2.6488" stroke-miterlimit="10" stroke-linecap="round"/>
<path d="M158.15 227.635C158.993 227.023 160.04 226.761 161.071 226.904C162.103 227.046 163.039 227.582 163.685 228.399C164.33 229.216 164.634 230.251 164.534 231.288C164.434 232.324 163.936 233.282 163.146 233.96" stroke="#0C0C0C" stroke-width="2.6488" stroke-miterlimit="10" stroke-linecap="round"/>
<path d="M227.789 260.403C226.323 256.805 217.088 241.154 224.329 238.794C229.049 237.236 241.355 253.482 237.436 255.889C234.389 257.768 226.941 239.229 229.256 235.563C233.335 229.124 245.296 244.5 245.8 248.372C246.465 252.635 243.509 250.664 242.042 248.212C238.834 243.056 235.695 234.005 240.438 228.917" stroke="#0C0C0C" stroke-width="2.6488" stroke-miterlimit="10" stroke-linecap="round"/>
<path d="M142.522 261.388C139.589 261.686 126.206 264.986 126.046 259.211C126.046 255.453 140.414 250.045 141.33 253.391C142.041 256.026 126.94 257.401 124.786 254.926C120.982 250.572 134.731 245.279 137.687 245.76C140.643 246.241 138.764 247.891 136.747 248.441C132.302 249.656 125.038 249.977 122.357 245.439" stroke="#0C0C0C" stroke-width="2.6488" stroke-miterlimit="10" stroke-linecap="round"/>
<path d="M201.529 219.454H173.687C172.341 219.529 171.02 219.067 170.015 218.169C169.009 217.271 168.401 216.01 168.325 214.665V179.536C168.402 178.188 169.009 176.925 170.013 176.024C171.018 175.122 172.339 174.655 173.687 174.724H213.078C214.422 174.655 215.739 175.119 216.744 176.016C217.748 176.912 218.357 178.169 218.44 179.513V214.642C218.363 215.987 217.755 217.248 216.75 218.146C215.744 219.044 214.424 219.506 213.078 219.431H207.739" stroke="#0C0C0C" stroke-width="2.6488" stroke-linecap="round" stroke-linejoin="round"/>
<path d="M207.899 216.635C207.899 216.635 206.432 227.222 203.843 229.238C201.253 231.255 201.803 214.595 201.803 214.595" stroke="#0C0C0C" stroke-width="2.6488" stroke-linecap="round" stroke-linejoin="round"/>
<path d="M87.7324 29.8083C87.8577 29.8083 87.9818 29.8333 88.0973 29.882C88.2128 29.9306 88.3174 30.0019 88.405 30.0916C88.4925 30.1812 88.5613 30.2875 88.6071 30.4042C88.653 30.5208 88.675 30.6455 88.6719 30.7708C88.672 30.8961 88.6469 31.0202 88.5983 31.1357C88.5497 31.2512 88.4784 31.3558 88.3887 31.4433C88.299 31.5309 88.1927 31.5996 88.0761 31.6455C87.9594 31.6913 87.8348 31.7133 87.7095 31.7103C87.5723 31.7317 87.432 31.7231 87.2984 31.6851C87.1647 31.6471 87.0409 31.5807 86.9354 31.4903C86.8299 31.4 86.7452 31.2879 86.6871 31.1617C86.6291 31.0355 86.599 30.8982 86.599 30.7593C86.599 30.6204 86.6291 30.4831 86.6871 30.3569C86.7452 30.2308 86.8299 30.1186 86.9354 30.0283C87.0409 29.9379 87.1647 29.8715 87.2984 29.8335C87.432 29.7956 87.5723 29.787 87.7095 29.8083H87.7324Z" fill="#0C0C0C"/>
<path d="M74.8767 29.3965C75.0031 29.3995 75.1277 29.4273 75.2433 29.4785C75.359 29.5296 75.4634 29.603 75.5506 29.6945C75.6379 29.786 75.7062 29.8938 75.7518 30.0118C75.7974 30.1297 75.8193 30.2555 75.8162 30.3819C75.8163 30.5072 75.7912 30.6313 75.7426 30.7468C75.694 30.8623 75.6227 30.9669 75.533 31.0544C75.4433 31.142 75.337 31.2107 75.2204 31.2566C75.1037 31.3024 74.9791 31.3244 74.8538 31.3214C74.7274 31.3184 74.6028 31.2906 74.4872 31.2394C74.3716 31.1883 74.2671 31.1149 74.1799 31.0234C74.0926 30.9319 74.0243 30.8241 73.9787 30.7061C73.9331 30.5882 73.9112 30.4624 73.9143 30.336C73.9142 30.2107 73.9393 30.0866 73.9879 29.9711C74.0366 29.8556 74.1078 29.751 74.1975 29.6635C74.2872 29.5759 74.3935 29.5072 74.5101 29.4614C74.6268 29.4155 74.7514 29.3935 74.8767 29.3965Z" fill="#0C0C0C"/>
<path d="M70.8666 305.018C71.0729 329.446 71.3708 350.528 71.4854 360.542C71.4854 364.07 71.4854 366.224 71.4854 366.66" stroke="#0C0C0C" stroke-width="2.6488" stroke-miterlimit="10"/>
<path d="M48.0658 207.928C48.3637 217.828 41.4891 223.763 33.0106 226.123C30.6832 226.76 28.2938 227.144 25.884 227.269" stroke="#0C0C0C" stroke-width="2.6488" stroke-miterlimit="10" stroke-linecap="round"/>
<path d="M83.6531 219.499C82.3825 248.372 78.0658 277.03 70.7749 304.996C65.9398 324.473 60.3027 343.103 54.8947 360.29V360.519C56.3154 360.817 63.6712 364.621 71.5311 366.912C73.8702 367.606 76.2609 368.112 78.6806 368.425C83.4927 368.997 88.0299 371.656 86.9071 377.797L34.0191 378.026C34.0191 377.316 34.0191 370.854 33.8816 360.496C33.5837 331.967 32.9191 273.992 33.1254 226.076C33.1254 217.093 33.1254 208.477 33.3316 200.457" stroke="#0C0C0C" stroke-width="2.6488" stroke-linecap="round" stroke-linejoin="round"/>
<path d="M120.432 200.893C118.988 264.115 105.148 318.447 91.9027 360.519C93.736 360.909 105.652 367.256 115.689 368.425C120.478 368.998 125.038 371.656 123.915 377.797H86.3573" stroke="#0C0C0C" stroke-width="2.6488" stroke-linecap="round" stroke-linejoin="round"/>
<path d="M92.7732 360.542H91.9025H71.8289" stroke="#0C0C0C" stroke-width="2.6488" stroke-miterlimit="10"/>
<path d="M54.8258 360.542H54.8029H33.8814" stroke="#0C0C0C" stroke-width="2.6488" stroke-miterlimit="10"/>
<path d="M96.8755 26.7153C98.892 34.644 87.7094 53.2968 84.4326 54.5572C84.034 54.7169 83.619 54.8321 83.1951 54.9009C78.4746 55.7487 72.5167 51.5553 70.5002 47.4077" stroke="#0C0C0C" stroke-width="2.6488" stroke-miterlimit="10" stroke-linecap="round"/>
<path d="M64.3127 22.453C64.4731 21.3302 64.6335 20.1615 64.8397 18.8095C65.1254 16.7935 65.5309 14.7964 66.0542 12.8287C66.6907 10.1488 67.9289 7.64907 69.6748 5.51874C76.3431 -1.92866 83.6301 3.61679 89.0151 11.2933C90.5123 13.4563 91.8671 15.7144 93.0711 18.0533" stroke="#0C0C0C" stroke-width="2.6488" stroke-miterlimit="10" stroke-linecap="round"/>
<path d="M62.663 72.4081C62.663 58.8423 61.9526 46.0328 63.0754 32.49" stroke="#0C0C0C" stroke-width="2.6488" stroke-miterlimit="10"/>
<path d="M83.1265 54.3511V54.901C83.6115 60.89 84.9543 66.7782 87.1137 72.3852" stroke="#0C0C0C" stroke-width="2.6488" stroke-miterlimit="10"/>
<path d="M66.1916 24.8588C65.6388 24.0113 64.9762 23.2408 64.2209 22.5673C58.8588 17.9843 55.307 28.1586 57.5068 31.0688C58.2047 31.7936 59.1003 32.2974 60.0821 32.5174C61.064 32.7374 62.0889 32.664 63.0294 32.3062C63.4556 32.1742 63.8696 32.0056 64.2668 31.8021" stroke="#0C0C0C" stroke-width="2.6488" stroke-miterlimit="10" stroke-linecap="round"/>
<path d="M65.3209 18.6256L64.8397 18.809C61.8607 19.7714 46.691 23.9649 46.5076 18.809C46.5076 15.6467 55.9716 13.8822 65.9855 12.8969C76.4347 11.8428 87.4111 11.6365 88.6256 11.522" stroke="#0C0C0C" stroke-width="2.6488" stroke-miterlimit="10"/>
<path d="M63.1903 26.6919C62.2131 27.5905 60.9428 28.1035 59.6156 28.1355" stroke="#0C0C0C" stroke-width="2.6488" stroke-miterlimit="10" stroke-linecap="round"/>
<path d="M34.2713 167.643C33.3318 182.515 32.2548 195.783 31.9798 199.977L121.99 199.931C121.853 192.438 120.088 176.58 117.797 159.234" stroke="#0C0C0C" stroke-width="2.6488" stroke-linecap="round" stroke-linejoin="round"/>
<path d="M36.4938 126.304C36.3105 130.681 35.8522 138.747 35.2335 148.807" stroke="#0C0C0C" stroke-width="2.6488" stroke-linecap="round" stroke-linejoin="round"/>
<path d="M49.2803 156.391L48.4783 156.025C47.0347 155.383 45.591 154.696 44.1703 154.008C41.0538 152.47 38.0314 150.749 35.1188 148.852C29.2296 144.934 25.5403 140.832 27.5339 137.395C30.3274 133.495 33.3179 129.739 36.4937 126.144C42.1226 119.413 48.2507 113.117 54.8258 107.307" stroke="#0C0C0C" stroke-width="2.6488" stroke-linejoin="round"/>
<path d="M105.72 13.4697C105.56 13.1948 105.17 12.5531 104.643 11.774C103.291 9.82625 101.16 6.91603 100.748 6.34316C99.3041 4.32663 97.6313 4.55578 95.5002 5.4953C94.1024 6.114 89.3361 7.51183 89.8173 9.7575C90.4818 12.7594 95.9356 9.7575 96.9897 9.91791C98.0438 10.0783 99.075 12.5531 99.877 13.8822" stroke="#0C0C0C" stroke-width="2.6488" stroke-miterlimit="10" stroke-linecap="round"/>
<path d="M101.939 14.5474C101.254 14.3342 100.558 14.1582 99.8541 14.0203C96.2564 13.3787 94.6982 14.5474 94.0108 15.991C93.6441 16.7243 93.3233 17.4118 93.0254 18.0763C92.2272 19.4889 91.7207 21.0474 91.5359 22.6593C91.4904 23.0407 91.563 23.4269 91.7437 23.7659C91.9244 24.1048 92.2047 24.3802 92.5468 24.555C92.8889 24.7298 93.2763 24.7955 93.6568 24.7434C94.0374 24.6912 94.3929 24.5237 94.6753 24.2634" stroke="#0C0C0C" stroke-width="2.6488" stroke-miterlimit="10" stroke-linecap="round"/>
<path d="M113.214 125.639C111.724 115.465 110.327 107.124 109.341 100.891C109.341 100.891 147.449 83.8193 152.88 75.8907C157.463 69.2912 119.286 27.3336 114.932 22.5902L114.543 22.1548C114.543 22.1548 107.829 9.9411 108.975 6.27468C110.372 1.69167 106.477 1.69167 105.102 6.57258C104.505 8.22982 104.331 10.0101 104.598 11.7514" stroke="#0C0C0C" stroke-width="2.6488" stroke-miterlimit="10" stroke-linecap="round"/>
<path d="M44.1474 154.467C44.1474 154.467 37.7082 158.042 38.0061 167.849" stroke="#0C0C0C" stroke-width="2.6488" stroke-miterlimit="10" stroke-linecap="round"/>
<path d="M56.6365 172.432C50.2728 171.584 43.9887 170.22 37.8461 168.353C36.7233 168.01 35.5546 167.643 34.4089 167.253C20.339 162.556 4.43592 153.734 2.14441 138.06C1.25073 131.827 4.688 126.877 7.41489 121.286C10.8292 114.228 30.6279 88.5401 35.463 84.6216C40.9397 80.0386 59.6613 77.3805 59.6613 77.3805C60.0833 75.5495 61.1383 73.9265 62.6402 72.7974V72.7974C64.9318 71.7663 78.2225 71.3767 85.8074 72.2246C86.2484 72.2735 86.676 72.4057 87.0677 72.6141C87.9314 73.1015 88.6717 73.7805 89.2319 74.5989C89.792 75.4172 90.157 76.3531 90.2988 77.3346L129.254 69.9101C121.624 55.1299 116.262 46.3993 106.339 29.19V29.0067C105.812 27.9984 103.108 22.8884 102.994 22.8425C102.879 22.7967 99.6939 22.8425 99.6939 22.8425L98.9607 24.882C98.8136 25.3691 98.5085 25.7934 98.0936 26.088C97.6787 26.3826 97.1775 26.5307 96.6691 26.509C95.7296 26.509 94.8818 26.0048 94.8818 25.2945C94.8515 25.0127 94.8515 24.7284 94.8818 24.4466C95.1 22.5135 95.899 20.6919 97.1733 19.222C98.3878 18.2824 100.588 18.6262 102.398 18.7866" stroke="#0C0C0C" stroke-width="2.6488" stroke-linecap="round" stroke-linejoin="round"/>
<path d="M115.024 22.5898C113.105 22.7514 111.266 23.4346 109.707 24.5654C108.148 25.6963 106.928 27.2319 106.179 29.0061" stroke="#0C0C0C" stroke-width="2.6488" stroke-miterlimit="10" stroke-linecap="round"/>
<path d="M78.0159 47.0632C78.7432 46.524 79.6179 46.2196 80.5229 46.1909C81.4279 46.1623 82.3201 46.4107 83.0801 46.9028" stroke="#0C0C0C" stroke-width="2.6488" stroke-linecap="round" stroke-linejoin="round"/>
<path d="M77.0766 24.3783C76.6913 24.0164 76.2343 23.7393 75.7353 23.5649C75.2362 23.3905 74.7061 23.3227 74.1792 23.3659C73.6523 23.4091 73.1404 23.5623 72.6764 23.8156C72.2123 24.0689 71.8066 24.4167 71.4854 24.8366" stroke="#0C0C0C" stroke-width="2.6488" stroke-miterlimit="10" stroke-linecap="round"/>
<path d="M89.6112 24.3087C89.2296 23.9439 88.7749 23.6642 88.2772 23.4879C87.7796 23.3117 87.2502 23.243 86.724 23.2863C86.1979 23.3296 85.6868 23.4839 85.2247 23.7392C84.7625 23.9944 84.3597 24.3447 84.0428 24.767" stroke="#0C0C0C" stroke-width="2.6488" stroke-miterlimit="10" stroke-linecap="round"/>
<path d="M83.9052 25.0649C82.7365 27.8606 83.9052 32.2603 84.3864 35.1705C84.6385 37.1641 85.0051 40.9909 81.6137 39.7535" stroke="#0C0C0C" stroke-width="2.6488" stroke-miterlimit="10" stroke-linecap="round"/>
<path d="M93.7129 134.782C93.7412 134.687 93.7796 134.594 93.8275 134.507C96.371 128.549 104.941 125.845 113.237 125.799C117.864 125.648 122.461 126.607 126.642 128.595" stroke="#0C0C0C" stroke-width="2.6488" stroke-linecap="round" stroke-linejoin="round"/>
<path d="M55.0779 126.602C56.7049 122.019 89.6109 121.584 93.5981 134.554L89.863 170.851" stroke="#0C0C0C" stroke-width="2.6488" stroke-linecap="round" stroke-linejoin="round"/>
<path d="M126.963 128.756C125.908 130.681 120.844 147.684 117.453 159.233C116.215 163.449 115.161 166.955 114.68 168.697C114.694 168.749 114.694 168.805 114.68 168.857" stroke="#0C0C0C" stroke-width="2.6488" stroke-linecap="round" stroke-linejoin="round"/>
<path d="M114.337 168.605C108.425 163.427 95.6151 165.397 89.9551 171.836" stroke="#0C0C0C" stroke-width="2.6488" stroke-linecap="round" stroke-linejoin="round"/>
<path d="M54.8031 160.15C54.8031 158.591 54.8031 156.85 54.8031 155.017C54.8031 153.94 54.8031 152.725 54.8031 151.671C54.8031 140.763 54.8031 127.885 55.3072 126.648" stroke="#0C0C0C" stroke-width="2.6488" stroke-linecap="round" stroke-linejoin="round"/>
<path d="M89.7715 171.722C87.1134 167.574 80.6055 165.947 73.731 165.558" stroke="#0C0C0C" stroke-width="2.6488" stroke-linecap="round" stroke-linejoin="round"/>
<path d="M69.2623 157.17C71.1414 155.154 69.0561 151.969 66.5354 154.031C62.9378 156.987 58.2173 160.149 54.8029 160.126H53.9551H53.4509" stroke="#0C0C0C" stroke-width="2.6488" stroke-linejoin="round"/>
<path d="M62.8006 167.712C66.6995 165.41 70.3077 162.648 73.5478 159.485L73.7998 159.188C74.6477 158.065 74.8081 154.605 72.0583 155.155C70.9915 155.638 70.0329 156.332 69.2397 157.194C66.3668 159.869 63.0675 162.045 59.4779 163.633" stroke="#0C0C0C" stroke-width="2.6488" stroke-linecap="round" stroke-linejoin="round"/>
<path d="M56.4529 172.432H56.6133C64.3586 173.165 70.3624 168.444 73.6163 165.328C74.7392 164.228 75.4954 163.311 75.9079 163.036C77.3057 161.341 76.2058 158.706 73.6163 159.53" stroke="#0C0C0C" stroke-width="2.6488" stroke-linejoin="round"/>
<path d="M54.0469 160.54C54.034 160.372 54.034 160.203 54.0469 160.035C53.8163 159.189 53.7644 158.303 53.8946 157.435C54.0248 156.567 54.3342 155.736 54.8031 154.994V154.994" stroke="#0C0C0C" stroke-width="2.6488" stroke-linejoin="round"/>
<path d="M48.1809 156.805C48.1809 156.644 48.3413 156.392 48.4788 156.117C48.9425 154.869 49.7589 153.782 50.8288 152.988C51.8987 152.195 53.176 151.73 54.5055 151.649" stroke="#0C0C0C" stroke-width="2.6488" stroke-linejoin="round"/>
<path d="M49.2803 156.391L48.4783 156.025C47.0347 155.383 45.591 154.696 44.1703 154.008C41.0538 152.47 38.0314 150.749 35.1188 148.852C29.2296 144.934 25.5403 140.832 27.5339 137.395C30.3274 133.495 33.3179 129.739 36.4937 126.144C42.1226 119.413 48.2507 113.117 54.8258 107.307" stroke="#E99000" stroke-width="2.6488" stroke-linecap="round" stroke-linejoin="round"/>
<path d="M68.644 364.117C71.2563 365.4 75.8851 368.241 78.5662 368.471C83.3784 368.883 86.6094 371.243 86.7011 377.843" stroke="#E99000" stroke-width="2.6488" stroke-linecap="square" stroke-linejoin="round"/>
</svg>
