<svg width="226" height="312" viewBox="0 0 226 312" fill="none" xmlns="http://www.w3.org/2000/svg">
<path d="M55.7426 166.752C56.1147 159.967 59.5525 111.433 60.0132 101.354L37.065 118.43C37.065 118.43 21.5772 147.409 21.1165 147.409C21.0521 147.421 20.9859 147.421 20.9216 147.409C19.6279 147.161 13.1776 145.301 11.8486 144.929H11.6182L24.1113 108.174C30.6502 96.4827 55.5122 77.1752 61.7499 73.9159C67.1901 71.0818 76.8833 71.3652 77.22 71.3829C77.787 69.9304 77.9642 68.0882 79.3819 67.2203H79.4882C81.2603 66.4054 91.68 65.4489 97.5278 67.0254C97.8043 67.1028 98.0673 67.2223 98.3075 67.3797C99.6609 68.3739 100.626 69.8081 101.036 71.436C101.036 71.436 114.805 72.0737 119.732 75.1558C128.592 80.7533 147.252 115.401 149.254 117.384C153.915 122.025 171.405 132.104 178.121 135.629C179.468 136.94 178.919 143.405 177.023 144.698V144.805C164.172 140.363 151.588 135.188 139.331 129.306C136.035 127.286 118.314 106.562 118.314 106.562C121.38 126.879 125.402 156.301 125.615 166.61H123.843L56.8058 166.734L55.7426 166.752Z" fill="#0C0C0C"/>
<path d="M74.0125 306.032V306.439L52.4997 306.244L35.0272 298.025L40.6269 286.529L40.8572 286.618L52.925 291.4L53.244 291.56C59.6411 294.819 59.9601 299.194 63.2561 299.035C68.8736 298.769 73.4632 303.02 74.0125 306.032Z" fill="#0C0C0C"/>
<path d="M143.229 303.109L139.685 290.16L139.862 290.585C139.862 290.585 153.383 287.238 153.436 286.83H153.879C156.254 286.387 167.046 288.371 174.754 287.238C178.476 286.688 182.41 287.787 182.817 292.552L143.229 303.374V303.109Z" fill="#0C0C0C"/>
<path d="M224 14.8422V309.468H197.95V14.8599L224 14.8422Z" fill="#0C0C0C"/>
<path d="M100.983 35.5489C100.991 35.6466 100.978 35.7448 100.948 35.8379C100.917 35.9309 100.868 36.0169 100.803 36.091C100.739 36.1651 100.661 36.2257 100.573 36.2695C100.486 36.3132 100.39 36.3392 100.292 36.346C100.095 36.3601 99.8999 36.2952 99.7503 36.1656C99.6008 36.0361 99.5089 35.8524 99.4948 35.6551C99.4807 35.4578 99.5456 35.263 99.6752 35.1135C99.8048 34.964 99.9885 34.8721 100.186 34.858C100.382 34.8481 100.575 34.9144 100.724 35.0431C100.872 35.1719 100.965 35.3531 100.983 35.5489Z" fill="#0C0C0C"/>
<path d="M91.2193 35.7967C91.229 35.8936 91.2192 35.9914 91.1903 36.0843C91.1615 36.1773 91.1143 36.2635 91.0515 36.3378C90.9887 36.4122 90.9115 36.4732 90.8247 36.5171C90.7378 36.5611 90.643 36.5872 90.5459 36.5938C90.4481 36.6011 90.3498 36.5889 90.2568 36.5581C90.1637 36.5272 90.0776 36.4783 90.0035 36.4141C89.9294 36.3499 89.8688 36.2717 89.825 36.184C89.7812 36.0963 89.7552 36.0008 89.7485 35.903C89.7413 35.8062 89.7535 35.7089 89.7846 35.6169C89.8157 35.5249 89.8649 35.44 89.9293 35.3674C89.9937 35.2947 90.0721 35.2357 90.1597 35.1938C90.2474 35.152 90.3425 35.1281 90.4396 35.1236C90.5355 35.1139 90.6325 35.1238 90.7244 35.1528C90.8164 35.1818 90.9015 35.2293 90.9745 35.2923C91.0475 35.3553 91.1068 35.4325 91.1489 35.5193C91.191 35.606 91.215 35.7004 91.2193 35.7967Z" fill="#0C0C0C"/>
<path d="M224 14.8422V309.468H197.951H87.0019V227.987" stroke="#0C0C0C" stroke-width="2.6488" stroke-linecap="round" stroke-linejoin="round"/>
<path d="M87.0019 13.9919V13.8857V2H224V14.8422L197.951 14.8599H197.862" stroke="#0C0C0C" stroke-width="2.6488" stroke-linecap="round" stroke-linejoin="round"/>
<path d="M117.074 8.536C117.074 9.10355 116.905 9.65835 116.59 10.1302C116.275 10.6021 115.826 10.9699 115.302 11.1871C114.777 11.4043 114.2 11.4612 113.643 11.3504C113.086 11.2397 112.575 10.9664 112.173 10.5651C111.772 10.1638 111.498 9.65247 111.387 9.09583C111.277 8.53919 111.334 7.96221 111.551 7.43787C111.768 6.91353 112.136 6.46536 112.608 6.15005C113.08 5.83474 113.635 5.66644 114.203 5.66644C114.963 5.67109 115.69 5.97491 116.228 6.51205C116.765 7.0492 117.069 7.77638 117.074 8.536Z" stroke="#0C0C0C" stroke-width="2.6488" stroke-linecap="round" stroke-linejoin="round"/>
<path d="M106.955 8.5365C106.955 9.10629 106.785 9.66314 106.468 10.1361C106.15 10.6091 105.698 10.9768 105.171 11.1923C104.643 11.4079 104.063 11.4615 103.505 11.3464C102.946 11.2313 102.435 10.9527 102.036 10.546C101.637 10.1394 101.367 9.62313 101.263 9.06303C101.158 8.50294 101.222 7.92437 101.448 7.40104C101.673 6.87772 102.05 6.43333 102.529 6.1245C103.008 5.81567 103.568 5.65638 104.138 5.66694C104.89 5.68086 105.606 5.98932 106.133 6.52597C106.66 7.06261 106.955 7.78456 106.955 8.5365V8.5365Z" stroke="#0C0C0C" stroke-width="2.6488" stroke-linecap="round" stroke-linejoin="round"/>
<path d="M96.8542 8.536C96.8542 9.10355 96.6858 9.65835 96.3704 10.1302C96.055 10.6021 95.6066 10.9699 95.0821 11.1871C94.5575 11.4043 93.9803 11.4612 93.4234 11.3504C92.8666 11.2397 92.355 10.9664 91.9536 10.5651C91.5521 10.1638 91.2787 9.65247 91.1679 9.09583C91.0571 8.53919 91.114 7.96221 91.3313 7.43787C91.5485 6.91353 91.9165 6.46536 92.3886 6.15005C92.8607 5.83474 93.4157 5.66644 93.9835 5.66644C94.3605 5.66644 94.7338 5.74067 95.0821 5.88487C95.4303 6.02908 95.7468 6.24046 96.0134 6.50692C96.28 6.77338 96.4914 7.08972 96.6357 7.43787C96.78 7.78602 96.8542 8.15917 96.8542 8.536V8.536Z" stroke="#0C0C0C" stroke-width="2.6488" stroke-linecap="round" stroke-linejoin="round"/>
<path d="M183.118 292.738L143.399 303.413L144.278 306.68L183.997 296.005L183.118 292.738Z" stroke="#0C0C0C" stroke-width="2.6488" stroke-linecap="round" stroke-linejoin="round"/>
<path d="M53.1735 291.542C56.3455 288.956 73.694 259.658 86.9667 227.987C89.5894 221.734 92.0526 215.375 94.2322 209.122C97.2252 200.765 99.5944 192.198 101.32 183.491" stroke="#0C0C0C" stroke-width="2.6488" stroke-linecap="round" stroke-linejoin="round"/>
<path d="M56.7168 166.841C56.3624 173.643 55.6713 181.525 54.7852 189.868C50.3551 231.636 40.8391 286.388 40.8391 286.388" stroke="#0C0C0C" stroke-width="2.6488" stroke-linecap="round" stroke-linejoin="round"/>
<path d="M94.444 209.14C103.96 222.549 136.371 282.066 139.756 290.09L139.933 290.515C139.933 290.515 153.454 287.167 153.507 286.76C154.34 280.861 141.811 228.43 123.736 166.699" stroke="#0C0C0C" stroke-width="2.6488" stroke-linecap="round" stroke-linejoin="round"/>
<path d="M66.4812 179.027C65.2585 185.546 60.4739 188.947 54.7856 189.992C52.0359 190.47 49.2243 190.47 46.4746 189.992" stroke="#0C0C0C" stroke-width="2.6488" stroke-linecap="round" stroke-linejoin="round"/>
<path d="M153.968 286.813C156.342 286.37 167.134 288.354 174.843 287.22C178.564 286.671 182.498 287.769 182.905 292.534L143.318 303.357" stroke="#0C0C0C" stroke-width="2.6488" stroke-linecap="round" stroke-linejoin="round"/>
<path d="M139.738 290.161L143.229 303.109" stroke="#0C0C0C" stroke-width="2.6488" stroke-linecap="round" stroke-linejoin="round"/>
<path d="M34.956 298.026L33.0599 301.657L51.6134 310L73.9414 309.823V306.44H73.9237L52.4109 306.245L34.956 298.026Z" stroke="#0C0C0C" stroke-width="2.6488" stroke-linecap="round" stroke-linejoin="round"/>
<path d="M74.0125 306.032C73.5518 302.985 68.9622 298.769 63.2738 299.035C59.9778 299.194 59.7297 294.819 53.2617 291.56L52.9427 291.4L40.875 286.618L40.6446 286.529L35.0272 298.025" stroke="#0C0C0C" stroke-width="2.6488" stroke-linecap="round" stroke-linejoin="round"/>
<path d="M60.0132 101.354C59.5524 111.433 56.1146 159.967 55.7425 166.752H56.7171L123.754 166.628H125.526C125.331 156.318 121.291 126.897 118.225 106.579C117.446 101.442 116.737 96.9078 116.17 93.3829" stroke="#0C0C0C" stroke-width="2.6488" stroke-linecap="round" stroke-linejoin="round"/>
<path d="M80.746 29.2073C80.9586 27.7194 81.189 25.948 81.5257 24.1767C81.9203 21.2343 83.061 18.4416 84.8394 16.064C85.4929 15.3069 86.2649 14.6609 87.1254 14.1509C90.4923 12.2202 93.9656 13.9207 96.9958 17.0559C98.0553 18.1594 99.027 19.3439 99.902 20.5986C102.556 24.3909 104.601 28.5745 105.962 32.9979C107.54 39.1445 98.8742 52.9963 96.3578 53.9882C96.0618 54.1115 95.7526 54.2007 95.4364 54.2539C91.7682 54.9271 87.1077 51.6678 85.5483 48.444" stroke="#0C0C0C" stroke-width="2.6488" stroke-linecap="round" stroke-linejoin="round"/>
<path d="M79.4884 67.5572V67.1321C79.4884 56.7698 78.9205 47.3463 79.79 37.0194" stroke="#0C0C0C" stroke-width="2.6488" stroke-linecap="round" stroke-linejoin="round"/>
<path d="M95.2772 54.6263L95.3835 55.0337C96.305 58.9484 96.5531 63.8904 98.2543 67.2914" stroke="#0C0C0C" stroke-width="2.5872" stroke-linecap="round" stroke-linejoin="round"/>
<path d="M82.1991 31.0672C81.77 30.4133 81.2577 29.8179 80.6752 29.2959C76.5108 25.7532 73.7641 33.6533 75.483 35.9029C76.0227 36.4632 76.7153 36.8526 77.4746 37.0227C78.2339 37.1928 79.0264 37.136 79.7537 36.8595C80.0846 36.7609 80.405 36.6304 80.7106 36.4698" stroke="#0C0C0C" stroke-width="2.6488" stroke-linecap="round" stroke-linejoin="round"/>
<path d="M99.9736 20.5814C100.736 20.5814 109.011 18.8101 111.9 16.3479C112.768 15.604 113.158 14.7715 112.697 13.9035C111.581 11.707 104.315 14.0275 97.0852 17.021C90.2096 19.8729 83.334 23.3093 81.7568 24.1064L81.491 24.2304" stroke="#0C0C0C" stroke-width="2.6488" stroke-linecap="round" stroke-linejoin="round"/>
<path d="M91.8393 31.8296C91.1104 31.6149 90.3414 31.5736 89.5938 31.7089C88.8461 31.8443 88.1404 32.1525 87.5331 32.609" stroke="#0C0C0C" stroke-width="2.6488" stroke-linecap="round" stroke-linejoin="round"/>
<path d="M79.878 32.5019C79.1147 33.1819 78.1357 33.5709 77.1136 33.6001" stroke="#0C0C0C" stroke-width="2.6488" stroke-linecap="round" stroke-linejoin="round"/>
<path d="M101.497 32.1126C100.328 31.5635 97.652 31.7229 97.1913 32.8742C96.4293 34.7341 97.5634 38.6134 98.0418 40.8275C98.3785 42.3509 98.9101 45.2736 96.2698 44.4942" stroke="#0C0C0C" stroke-width="2.6488" stroke-linecap="round" stroke-linejoin="round"/>
<path d="M92.6192 48.2671C92.9347 48.6082 93.3225 48.8744 93.7541 49.0464C94.1858 49.2184 94.6505 49.2918 95.1142 49.2612C95.5778 49.2307 96.0288 49.0969 96.4342 48.8698C96.8395 48.6426 97.189 48.3278 97.4569 47.9483" stroke="#0C0C0C" stroke-width="2.6488" stroke-linecap="round" stroke-linejoin="round"/>
<path d="M77.2199 71.3828C76.8833 71.3828 67.1901 71.0817 61.7499 73.9158C55.5122 77.175 30.6502 96.4826 24.1112 108.173L11.5296 144.805H11.76C13.089 145.177 19.5393 147.036 20.8329 147.284C20.8973 147.297 20.9635 147.297 21.0279 147.284C21.5772 147.284 36.9764 118.305 36.9764 118.305L59.8892 101.177L66.3395 96.3586" stroke="#0C0C0C" stroke-width="2.6488" stroke-linecap="round" stroke-linejoin="round"/>
<path d="M18.2101 155.131C17.9357 156.883 17.3728 158.577 16.5444 160.144C13.9749 164.998 9.45612 167.017 7.80811 164.041" stroke="#0C0C0C" stroke-width="2.6488" stroke-linecap="round" stroke-linejoin="round"/>
<path d="M14.8609 155.043C14.5233 156.936 13.7463 158.723 12.5922 160.262C11.438 161.8 9.93907 163.046 8.21567 163.9L7.8081 164.095C6.86891 164.52 5.20317 165.104 4.60067 163.864C4.42896 163.445 4.40195 162.981 4.52391 162.544C4.64586 162.108 4.90982 161.725 5.27405 161.455H5.39809" stroke="#0C0C0C" stroke-width="2.6488" stroke-linecap="round" stroke-linejoin="round"/>
<path d="M11.246 154.105C10.8207 156.461 7.54243 160.092 5.25647 161.403C4.82517 161.679 4.33186 161.843 3.82109 161.881C1.41109 161.881 1.53514 159.383 3.36036 158.143C9.59802 153.892 8.1272 146.63 11.7599 144.912" stroke="#0C0C0C" stroke-width="2.6488" stroke-linecap="round" stroke-linejoin="round"/>
<path d="M16.6155 160.18C16.9376 160.385 17.3028 160.512 17.6825 160.552C18.0622 160.592 18.4459 160.543 18.8034 160.409C19.1608 160.275 19.4822 160.059 19.7422 159.78C20.0022 159.5 20.1936 159.164 20.3014 158.798C20.9525 157.233 21.3301 155.567 21.4178 153.874C21.6694 151.75 21.4763 149.596 20.8508 147.55" stroke="#0C0C0C" stroke-width="2.6488" stroke-linecap="round" stroke-linejoin="round"/>
<path d="M194.708 144.61C194.979 145.59 194.91 146.633 194.513 147.568C194.076 148.608 193.276 149.454 192.263 149.949C191.249 150.444 190.091 150.555 189.002 150.261L188.435 150.066C187.705 149.763 187.064 149.279 186.574 148.659C186.083 148.039 185.759 147.305 185.632 146.525C185.505 145.745 185.58 144.946 185.848 144.203C186.117 143.459 186.571 142.797 187.167 142.279C187.764 141.76 188.483 141.402 189.256 141.239C190.029 141.076 190.832 141.113 191.587 141.346C192.342 141.58 193.025 142.002 193.571 142.573C194.117 143.144 194.509 143.846 194.708 144.61V144.61Z" stroke="#0C0C0C" stroke-width="2.6488" stroke-linecap="round" stroke-linejoin="round"/>
<path d="M195.098 144.486C196.444 142.715 195.558 140.731 193.893 139.455C193.528 139.166 193.129 138.922 192.705 138.729C191.206 137.947 189.46 137.779 187.839 138.262C186.218 138.745 184.849 139.84 184.022 141.315" stroke="#0C0C0C" stroke-width="2.6488" stroke-linecap="round" stroke-linejoin="round"/>
<path d="M194.283 139.367C194.761 136.799 191.837 135.825 190.738 135.594C190.547 135.542 190.351 135.506 190.154 135.488C187.159 134.992 184.483 135.488 182.764 138.57" stroke="#0C0C0C" stroke-width="2.6488" stroke-linecap="round" stroke-linejoin="round"/>
<path d="M77.22 71.3474C77.787 69.8949 77.9642 68.0527 79.3819 67.1847H79.4882C81.2603 66.3699 91.68 65.4134 97.5278 66.9899C97.8043 67.0673 98.0673 67.1868 98.3075 67.3442C99.6609 68.3384 100.626 69.7726 101.036 71.4005C101.036 71.4005 114.805 72.0382 119.732 75.1203C128.592 80.7177 147.252 115.365 149.254 117.349C153.915 121.99 171.405 132.069 178.121 135.594C178.946 136.103 179.826 136.519 180.744 136.834C181.913 134.159 187.832 131.413 190.242 135.169" stroke="#0C0C0C" stroke-width="2.6488" stroke-linecap="round" stroke-linejoin="round"/>
<path d="M118.314 106.562C118.314 106.562 136.035 127.286 139.348 129.252C151.605 135.135 164.19 140.31 177.04 144.752C178.369 145.177 179.627 145.549 180.762 145.85C180.992 145.907 181.207 146.016 181.388 146.17C181.57 146.324 181.713 146.517 181.807 146.735C182.534 148.507 184.784 152.439 189.055 150.278" stroke="#0C0C0C" stroke-width="2.6488" stroke-linecap="round" stroke-linejoin="round"/>
<path d="M111.97 16.4363L197.95 6.80023V14.8598V309.468V309.486" stroke="#0C0C0C" stroke-width="2.6488" stroke-linecap="round" stroke-linejoin="round"/>
<path d="M176.987 144.646C178.883 143.353 179.432 136.887 178.085 135.577" stroke="#0C0C0C" stroke-width="2.6488" stroke-linecap="round" stroke-linejoin="round"/>
</svg>
