<svg width="117" height="271" viewBox="0 0 117 271" fill="none" xmlns="http://www.w3.org/2000/svg">
<path d="M105.136 39.5563C105.128 40.6689 104.898 41.7687 104.458 42.7906C103.716 44.4078 100.875 49.049 100.875 49.049L97.969 54.1431C97.903 54.2609 97.807 54.359 97.6907 54.4273C97.5743 54.4956 97.4419 54.5316 97.3071 54.5316C97.1723 54.5316 97.0399 54.4956 96.9236 54.4273C96.8072 54.359 96.7112 54.2609 96.6453 54.1431L93.7234 49.049C93.7234 49.049 90.8984 44.4401 90.1558 42.7906C89.7181 41.7682 89.4876 40.6687 89.4778 39.5563C89.4778 37.4761 90.3027 35.4811 91.771 34.0103C93.2393 32.5394 95.2307 31.713 97.3071 31.713C99.3836 31.713 101.375 32.5394 102.843 34.0103C104.312 35.4811 105.136 37.4761 105.136 39.5563ZM100.294 38.8609C100.296 38.2752 100.127 37.7016 99.8058 37.2121C99.4848 36.7226 99.0267 36.3388 98.489 36.109C97.9512 35.8791 97.3577 35.8133 96.7828 35.9199C96.2079 36.0265 95.6772 36.3007 95.2571 36.7081C94.8371 37.1155 94.5464 37.6381 94.4215 38.2103C94.2967 38.7825 94.3431 39.3789 94.5551 39.9247C94.7671 40.4706 95.1352 40.9416 95.6133 41.2788C96.0913 41.616 96.6581 41.8044 97.2425 41.8203C97.6359 41.8289 98.027 41.7587 98.3929 41.6139C98.7588 41.469 99.0921 41.2524 99.3733 40.9767C99.6545 40.701 99.8779 40.3719 100.03 40.0086C100.183 39.6452 100.261 39.255 100.261 38.8609H100.294Z" fill="#0C0C0C"/>
<path d="M54.3349 51.2973C55.6102 51.5399 56.4174 53.6746 56.3366 54.7581C56.3366 54.7581 66.0223 54.8713 69.3639 56.7957C69.3639 56.7957 73.9485 61.1621 79.6469 74.8918L74.6426 73.1129H56.3528L47.4096 99.6991H47.2805C44.7622 97.6292 40.4521 99.9579 40.0485 102.367C40.0485 102.562 38.9508 102.367 37.2881 101.996V102.157C32.1547 105.602 34.6891 112.167 34.6891 112.167V112.556C27.8639 111.986 21.1232 110.657 14.5913 108.594C7.9566 106.249 4.9056 103.225 3.40432 99.5374C1.12818 94.2331 10.4587 61.4208 19.2081 56.8766C22.5336 55.1462 33.7367 54.5155 35.2057 54.4508C35.4804 53.2612 36.1739 52.2105 37.159 51.4914C37.2727 51.4471 37.3924 51.4199 37.5141 51.4105C43.0852 50.5477 48.7527 50.5095 54.3349 51.2973Z" fill="#0C0C0C"/>
<path d="M71.8985 259.411C75.2724 259.799 78.4686 261.691 77.7099 265.993H51.6231C52.398 261.675 49.2017 259.783 45.8117 259.395C44.0984 259.202 42.4033 258.873 40.7429 258.408V258.198C40.7429 257.907 40.7429 256.387 40.7429 253.88H55.11C56.4498 254.106 64.8602 258.57 71.8985 259.411Z" fill="#0C0C0C"/>
<path d="M75.8533 140.354L12.3151 140.5C12.4118 129.827 13.1719 119.171 14.5913 108.593C21.0931 110.638 27.8009 111.956 34.5922 112.523L36.4486 112.717C37.8491 113.377 39.2823 113.966 40.7426 114.48C41.3399 114.609 41.9211 114.706 42.4699 114.771L38.9992 125.105L58.9356 123.099L75.0784 128.42C75.5304 135.212 75.7564 138.899 75.8533 140.354Z" fill="#0C0C0C"/>
<path d="M56.4822 24.2418C56.8566 24.2418 57.1602 23.9378 57.1602 23.5626C57.1602 23.1875 56.8566 22.8834 56.4822 22.8834C56.1077 22.8834 55.8042 23.1875 55.8042 23.5626C55.8042 23.9378 56.1077 24.2418 56.4822 24.2418Z" fill="#0C0C0C"/>
<path d="M45.7634 259.411C49.1534 259.799 52.3496 261.691 51.5748 266.009H14.3171C14.3171 264.877 14.3171 260.494 14.2203 253.88H29.0232C30.008 254.106 35.2059 256.791 40.7429 258.392C42.3867 258.865 44.0655 259.205 45.7634 259.411Z" fill="#0C0C0C"/>
<path d="M48.1037 24.2418C48.4782 24.2418 48.7817 23.9378 48.7817 23.5626C48.7817 23.1875 48.4782 22.8834 48.1037 22.8834C47.7293 22.8834 47.4257 23.1875 47.4257 23.5626C47.4257 23.9378 47.7293 24.2418 48.1037 24.2418Z" fill="#0C0C0C"/>
<path d="M35.206 54.4507C35.4807 53.2611 36.1742 52.2104 37.1593 51.4913C37.273 51.447 37.3927 51.4198 37.5144 51.4104C43.1017 50.5819 48.7803 50.5819 54.3675 51.4104V51.4104C55.6428 51.653 56.45 53.7877 56.3692 54.8712C56.3692 54.8712 66.0549 54.9844 69.3965 56.9088C69.3965 56.9088 73.9811 61.2752 79.6795 75.0049L79.7763 75.2151" stroke="#0C0C0C" stroke-width="2.6488" stroke-linejoin="round"/>
<path d="M35.0928 54.7739C35.0928 54.6607 35.0928 54.5475 35.2064 54.4504" stroke="#0C0C0C" stroke-width="2.6488" stroke-linejoin="round"/>
<path d="M40.3393 214.615C40.5007 231.87 40.7106 246.748 40.7751 253.799C40.7751 256.305 40.7751 257.825 40.7751 258.117" stroke="#0C0C0C" stroke-width="2.6488" stroke-miterlimit="10"/>
<path d="M75.0139 128.371C75.5304 135.212 75.7564 138.899 75.8533 140.387L12.3151 140.533C12.4104 129.849 13.1706 119.182 14.5913 108.594C14.5913 108.416 14.5913 108.222 14.5913 108.044" stroke="#0C0C0C" stroke-width="2.6488" stroke-linejoin="round"/>
<path d="M24.2934 146.112C24.4871 153.098 19.6604 157.286 13.6714 158.952C12.033 159.405 10.3489 159.67 8.651 159.745" stroke="#0C0C0C" stroke-width="2.6488" stroke-miterlimit="10" stroke-linecap="round"/>
<path d="M14.3169 265.927C14.3169 264.795 14.3169 260.413 14.2201 253.799C14.0102 233.681 13.5259 192.767 13.6712 158.952C13.6712 152.612 13.6712 146.516 13.8165 140.872" stroke="#0C0C0C" stroke-width="2.6488" stroke-linecap="round" stroke-linejoin="round"/>
<path d="M51.5586 266.009L14.3171 266.187C14.3111 266.111 14.3111 266.035 14.3171 265.96" stroke="#0C0C0C" stroke-width="2.6488" stroke-linecap="round" stroke-linejoin="round"/>
<path d="M49.347 154.278C48.4609 174.65 45.4198 194.87 40.2747 214.598C36.8685 228.36 32.9136 241.492 29.1039 253.637L29.0231 253.799C30.0078 254.025 35.2058 256.709 40.7428 258.31C42.3848 258.805 44.0636 259.167 45.7632 259.394C49.1532 259.782 52.3495 261.674 51.5747 265.992" stroke="#0C0C0C" stroke-width="2.6488" stroke-linecap="round" stroke-linejoin="round"/>
<path d="M75.2562 141.147C74.2392 185.765 64.5051 224.108 55.1745 253.799C56.4821 254.09 64.8602 258.554 71.9308 259.395C75.3046 259.783 78.5009 261.675 77.7422 265.977H51.2518" stroke="#0C0C0C" stroke-width="2.6488" stroke-linecap="round" stroke-linejoin="round"/>
<path d="M38.6279 16.7226C38.8216 15.3642 39.0315 13.7632 39.3544 12.146C39.7109 9.47159 40.7445 6.93301 42.3569 4.77174C46.0698 0.631788 50.0248 2.18427 53.3986 5.67735C54.3713 6.67804 55.257 7.76008 56.046 8.91168C58.4599 12.3739 60.3173 16.1936 61.5507 20.2318C62.9713 25.8272 55.0936 38.425 52.8175 39.3306C52.5515 39.438 52.2758 39.5192 51.9942 39.5732C48.6688 40.1877 44.4393 37.2283 43.0188 34.285" stroke="#0C0C0C" stroke-width="2.6488" stroke-miterlimit="10" stroke-linecap="round"/>
<path d="M37.5142 51.6368V51.4104C37.5142 41.95 37.0138 33.3305 37.8048 23.9186" stroke="#0C0C0C" stroke-width="2.6488" stroke-miterlimit="10"/>
<path d="M51.8811 39.2335L51.978 39.6216C52.8335 43.1794 53.334 46.6401 54.3348 51.2976" stroke="#0C0C0C" stroke-width="2.6488" stroke-miterlimit="10"/>
<path d="M39.9518 18.4203C39.5657 17.8197 39.0985 17.2755 38.5635 16.8031C34.8022 13.5688 32.2839 20.7652 33.8498 22.819C34.3371 23.3319 34.9661 23.6874 35.6563 23.8401C36.3465 23.9928 37.0665 23.9357 37.7241 23.6761C38.0343 23.597 38.3328 23.4774 38.6119 23.3203" stroke="#0C0C0C" stroke-width="2.6488" stroke-miterlimit="10" stroke-linecap="round"/>
<path d="M56.0139 8.94333C56.9179 8.8463 69.4608 6.30735 67.669 2.7981C66.652 0.776645 60.0011 2.9113 53.3664 5.67666C47.0707 8.2803 40.775 11.4499 39.3383 12.1453L39.0962 12.2585" stroke="#0C0C0C" stroke-width="2.6488" stroke-miterlimit="10"/>
<path d="M54.4318 18.9213C54.9807 17.757 57.1115 17.0131 57.9671 18.4039" stroke="#0C0C0C" stroke-width="2.6488" stroke-miterlimit="10" stroke-linecap="round"/>
<path d="M49.1209 20.4255C48.4756 20.1762 47.7804 20.0843 47.0927 20.1574C46.405 20.2305 45.7446 20.4666 45.1659 20.8459" stroke="#0C0C0C" stroke-width="2.6488" stroke-miterlimit="10" stroke-linecap="round"/>
<path d="M53.4634 35.0772C52.4303 36.3063 50.2349 35.3036 49.2017 34.6567" stroke="#0C0C0C" stroke-width="2.6488" stroke-linecap="round" stroke-linejoin="round"/>
<path d="M37.8531 19.7137C37.1616 20.3429 36.2686 20.7042 35.3348 20.7326" stroke="#0C0C0C" stroke-width="2.6488" stroke-miterlimit="10" stroke-linecap="round"/>
<path d="M53.5278 21.0562C53.399 23.2321 53.6114 25.4148 54.1573 27.5248C54.3672 28.9318 54.6578 31.6324 52.2686 30.7592" stroke="#0C0C0C" stroke-width="2.6488" stroke-miterlimit="10" stroke-linecap="round"/>
<path d="M55.7716 253.799H55.1744H41.0171" stroke="#0C0C0C" stroke-width="2.6488" stroke-miterlimit="10"/>
<path d="M29.0395 253.799H29.0233H14.2849" stroke="#0C0C0C" stroke-width="2.6488" stroke-miterlimit="10"/>
<path d="M14.3168 266.186V269H51.5583V266.008V265.927H14.3168V265.96V266.186Z" stroke="#0C0C0C" stroke-width="2.6488" stroke-linecap="round" stroke-linejoin="round"/>
<path d="M51.623 266.008V269H77.7099V265.992V265.927H51.623V266.008Z" stroke="#0C0C0C" stroke-width="2.6488" stroke-linecap="round" stroke-linejoin="round"/>
<path d="M95.9192 106.426L98.0178 100.912L107.623 75.6355L91.1571 78.9992L79.7118 74.9077L74.6752 73.1127H56.3531L47.41 99.6989L45.7957 104.486L45.7634 104.583" stroke="#0C0C0C" stroke-width="2.6488" stroke-linejoin="round"/>
<path d="M42.5344 114.302L42.4053 114.69L38.9346 125.04L58.871 123.019L75.0138 128.339L88.7998 125.137L92.6418 115.062" stroke="#0C0C0C" stroke-width="2.6488" stroke-linejoin="round"/>
<path d="M43.0673 103.806C43.4466 104.109 43.8866 104.327 44.3574 104.444C44.8282 104.561 45.3187 104.576 45.7955 104.486C48.5397 104.098 51.4939 101.542 52.5109 103.16C52.8499 103.709 52.5109 104.453 51.9459 105.213C50.1863 107.251 45.634 109.289 42.2602 107.429" stroke="#0C0C0C" stroke-width="2.6488" stroke-linecap="round" stroke-linejoin="round"/>
<path d="M52.1556 105.278C53.9152 106.475 52.9304 108.044 51.8004 109.095C51.526 109.337 51.2355 109.564 50.9933 109.742C49.7082 110.753 48.1816 111.41 46.5648 111.649C44.948 111.887 43.2972 111.698 41.7758 111.1" stroke="#0C0C0C" stroke-width="2.6488" stroke-linecap="round" stroke-linejoin="round"/>
<path d="M51.8328 109.127C52.7207 108.949 53.3018 109.822 52.8498 110.841C52.3978 111.86 49.6212 115.693 42.4054 114.69C41.8565 114.69 41.2754 114.528 40.6781 114.399C39.2424 113.93 37.8308 113.391 36.4487 112.782L34.5923 112.588C27.7985 112 21.0906 110.66 14.5913 108.593C7.9566 106.248 4.9056 103.224 3.40432 99.537C1.12818 94.2327 10.4587 61.4204 19.2081 56.8762C22.5336 55.1458 33.7367 54.5151 35.2057 54.4504H35.351" stroke="#0C0C0C" stroke-width="2.6488" stroke-linejoin="round"/>
<path d="M96.5003 106.087C96.339 106.249 96.1388 106.366 95.9191 106.427C93.6753 107.057 88.6871 102.934 87.8477 105.489C87.6863 106.006 88.1383 106.605 88.9293 107.106C91.307 108.691 94.1581 109.405 97.0007 109.127" stroke="#0C0C0C" stroke-width="2.6488" stroke-linecap="round" stroke-linejoin="round"/>
<path d="M88.9291 107.203C86.879 107.882 87.6054 109.256 88.6709 110.194C88.9933 110.47 89.3452 110.708 89.7201 110.906C91.7938 111.818 94.0262 112.312 96.2903 112.361" stroke="#0C0C0C" stroke-width="2.6488" stroke-linecap="round" stroke-linejoin="round"/>
<path d="M88.5416 110.195C87.799 110.017 87.3147 111.003 87.7021 112.022C89.0374 113.46 90.7767 114.458 92.6903 114.885C93.7342 115.207 94.8299 115.328 95.9188 115.24C97.2273 115.11 98.4754 114.623 99.528 113.834C100.581 113.044 101.398 111.982 101.892 110.761C102.553 109.127 102.553 107.3 101.892 105.667C101.581 104.763 101.134 103.913 100.568 103.144C99.905 102.35 99.1396 101.649 98.2918 101.058" stroke="#0C0C0C" stroke-width="2.6488" stroke-linecap="round" stroke-linejoin="round"/>
<path d="M47.2807 99.6664C44.7624 97.5964 40.4523 99.9251 40.0487 102.335C40.0487 102.529 38.951 102.335 37.2883 101.963C32.1549 100.718 21.4683 97.1113 18.9177 93.6344C15.5277 89.1063 25.2134 72.2069 25.2134 72.2069" stroke="#0C0C0C" stroke-width="2.6488" stroke-linecap="round" stroke-linejoin="round"/>
<path d="M74.562 74.1155L58.8712 123.019" stroke="#0C0C0C" stroke-width="2.6488" stroke-linecap="round" stroke-linejoin="round"/>
<path d="M91.1568 78.9994L75.014 128.339" stroke="#0C0C0C" stroke-width="2.6488" stroke-linecap="round" stroke-linejoin="round"/>
<path d="M103.038 58.7688H83.4408C82.491 58.8219 81.5588 58.4962 80.848 57.8629C80.1372 57.2295 79.7055 56.3401 79.6472 55.3889V30.5978C79.6679 30.1212 79.7827 29.6534 79.985 29.2216C80.1874 28.7897 80.4733 28.4024 80.8261 28.082C81.179 27.7617 81.5917 27.5146 82.0405 27.3552C82.4894 27.1957 82.9653 27.1271 83.4408 27.1532H111.174C111.652 27.1226 112.132 27.188 112.584 27.3454C113.037 27.5028 113.453 27.7491 113.81 28.0699C114.166 28.3907 114.455 28.7796 114.659 29.2136C114.864 29.6477 114.979 30.1183 115 30.5978V55.3889C114.946 56.3387 114.518 57.2281 113.809 57.8619C113.101 58.4956 112.171 58.8218 111.223 58.7688H107.413" stroke="#0C0C0C" stroke-width="2.6488" stroke-linecap="round" stroke-linejoin="round"/>
<path d="M107.526 56.7797C107.526 56.7797 107.413 57.5883 107.203 58.7365C106.767 61.049 105.895 64.72 104.668 65.6741C103.442 66.6283 103.232 62.1164 103.199 58.7688C103.199 56.8768 103.199 55.3405 103.199 55.3405" stroke="#0C0C0C" stroke-width="2.6488" stroke-linecap="round" stroke-linejoin="round"/>
<path d="M34.6409 112.135C34.6409 112.135 32.1065 105.569 37.2399 102.125" stroke="#0C0C0C" stroke-width="2.6488" stroke-linecap="round" stroke-linejoin="round"/>
<path d="M37.5142 103.257C34.1403 102.109 22.017 97.7424 18.8692 93.5539C15.4953 89.1876 25.1649 72.1265 25.1649 72.1265" stroke="#E99000" stroke-width="2.6488" stroke-linecap="round" stroke-linejoin="round"/>
<path d="M35.5448 111.423C10.5396 111.245 3.00086 105.876 2 99.7634" stroke="#E99000" stroke-width="2.6488" stroke-linejoin="round"/>
<path d="M29.556 253.993C31.8321 254.834 39.4354 258.65 45.8764 259.394C49.2825 259.782 52.2528 261.658 51.6071 266.445" stroke="#E99000" stroke-width="2.6488" stroke-linejoin="round"/>
</svg>
