<svg width="230" height="514" viewBox="0 0 230 514" fill="none" xmlns="http://www.w3.org/2000/svg">
<path d="M183.849 171.577C188.346 170.561 191.98 169.699 194.321 169.021C187.945 161.629 185.389 157.933 181.231 152.666C181.231 152.666 182.063 158.395 183.818 171.516L183.849 171.577ZM186.929 194.554V194.831C191.457 226.432 196.754 261.359 197.124 268.166L76.203 267.951C76.6034 246.206 85.443 185.314 90.525 153.991C87.8454 155.099 40.6906 172.471 35.085 166.773V166.619C31.1734 144.196 26.153 119.741 23.2886 101.323L36.5326 95.563C38.5962 102 47.5898 125.562 53.2262 137.913C65.8619 126.281 79.6611 115.981 94.4058 107.175C103.646 102.185 118.738 102.801 118.738 102.801C118.931 101.383 119.47 100.034 120.308 98.8738C121.146 97.7135 122.257 96.7774 123.543 96.1482L124.436 95.8094C134.754 92.9758 153.665 95.0086 156.037 96.4562C158.023 97.9927 159.416 100.169 159.979 102.616C159.979 102.616 185.143 106.312 192.535 112.38C192.535 112.38 214.957 143.026 226.168 167.081C230.295 175.92 228.725 181.341 221.209 185.561C216.897 188.456 202.113 191.905 186.991 194.554H186.929ZM145.195 182.234C145.749 180.756 142.331 176.598 138.296 176.259H137.895L139.435 163.077C139.435 161.444 133.275 159.997 125.853 159.997C118.43 159.997 112.301 161.352 112.301 163.077C112.305 163.266 112.37 163.45 112.485 163.6L114.149 178.23C114.135 178.312 114.135 178.395 114.149 178.477C113.704 178.448 113.259 178.516 112.844 178.676C112.429 178.836 112.053 179.084 111.743 179.403C111.432 179.722 111.195 180.105 111.047 180.524C110.898 180.944 110.843 181.391 110.884 181.834C111.038 182.87 111.436 183.855 112.047 184.707C112.658 185.559 113.463 186.253 114.395 186.731V186.731C113.986 186.641 113.562 186.641 113.154 186.732C112.745 186.823 112.361 187.003 112.029 187.258C111.697 187.514 111.426 187.839 111.233 188.211C111.04 188.583 110.932 188.992 110.915 189.411C111.111 190.345 111.522 191.221 112.116 191.97C112.709 192.718 113.468 193.318 114.333 193.723C113.956 193.598 113.555 193.563 113.162 193.62C112.769 193.678 112.395 193.826 112.069 194.053C111.743 194.28 111.475 194.58 111.285 194.929C111.095 195.278 110.99 195.666 110.976 196.063C110.976 197.542 113.071 199.39 116.828 200.683V201.423L117.752 209.708C120.324 210.46 122.988 210.854 125.668 210.878C128.588 210.818 131.491 210.425 134.323 209.708L135.185 201.885V201.392C139.063 200.685 142.86 199.591 146.519 198.127L147.043 197.696C144.302 194.955 142.331 186.084 145.257 182.234H145.195Z" fill="black"/>
<path d="M123.82 506.157V505.973H73.9552C72.5076 497.78 78.6061 494.176 85.0433 493.437C98.4413 491.866 114.519 483.335 117.014 482.811H144.487C144.487 487.554 144.487 490.449 144.487 491.035V491.404C141.349 492.364 138.134 493.055 134.878 493.468C128.44 494.299 122.311 497.903 123.82 506.157Z" fill="black"/>
<path d="M123.82 505.972V506.157C122.311 497.903 128.44 494.299 134.877 493.56C138.133 493.147 141.348 492.456 144.487 491.496C155.051 488.416 164.938 483.334 166.847 482.934H195.029C195.029 495.531 194.875 503.878 195.029 506.034L123.82 505.972Z" fill="black"/>
<path d="M137.125 40.3078C137.463 40.3316 137.778 40.4868 138.003 40.7402C138.227 40.9935 138.344 41.3249 138.327 41.663C138.295 42.0034 138.133 42.3185 137.875 42.5424C137.617 42.7662 137.282 42.8816 136.941 42.8642C136.603 42.8329 136.291 42.67 136.072 42.4108C135.853 42.1515 135.745 41.8166 135.77 41.4782C135.778 41.3108 135.819 41.1466 135.892 40.9958C135.966 40.845 136.069 40.7107 136.196 40.6011C136.323 40.4915 136.47 40.409 136.63 40.3586C136.79 40.3082 136.959 40.2909 137.125 40.3078V40.3078Z" fill="black"/>
<path d="M120.217 39.8455C120.523 39.9103 120.795 40.0836 120.982 40.3334C121.17 40.5832 121.261 40.8925 121.239 41.2043C121.216 41.516 121.082 41.809 120.86 42.0292C120.638 42.2493 120.344 42.3817 120.032 42.4019C119.848 42.4138 119.663 42.3861 119.49 42.3206C119.317 42.2551 119.161 42.1533 119.03 42.0222C118.9 41.891 118.8 41.7335 118.736 41.5603C118.671 41.387 118.645 41.202 118.658 41.0177C118.672 40.8334 118.724 40.6541 118.813 40.4919C118.901 40.3297 119.023 40.1882 119.171 40.0772C119.319 39.9661 119.488 39.888 119.669 39.848C119.849 39.808 120.036 39.8072 120.217 39.8455V39.8455Z" fill="black"/>
<path d="M90.6177 154.083C87.9381 155.191 40.7833 172.563 35.1777 166.865" stroke="black" stroke-width="2.6488" stroke-miterlimit="10"/>
<path d="M153.912 30.0201C153.542 27.4329 153.142 24.4145 152.557 21.3345C151.837 16.2985 149.867 11.523 146.828 7.4437C139.775 -0.441101 132.198 2.5157 125.761 9.1377C123.913 11.0514 122.224 13.1114 120.709 15.2977C116.104 21.8917 112.56 29.1666 110.207 36.8577C107.496 47.5145 122.527 71.5385 126.869 73.2633C127.39 73.4537 127.925 73.598 128.471 73.6945C134.816 74.8957 142.885 69.2285 145.596 63.6537" stroke="black" stroke-width="2.6488" stroke-miterlimit="10" stroke-linecap="round"/>
<path d="M156.099 96.5485C156.099 78.3149 157.084 61.7445 155.575 43.5725" stroke="black" stroke-width="2.6488" stroke-miterlimit="10"/>
<path d="M128.625 72.894C128.61 73.1402 128.61 73.3871 128.625 73.6332C127.023 80.8096 126.592 89.68 123.635 96.0556" stroke="black" stroke-width="2.6488" stroke-miterlimit="10"/>
<path d="M151.386 33.2543C152.147 32.1286 153.036 31.0951 154.035 30.1743C161.242 24.0143 166.016 37.7203 163.059 41.6011C162.126 42.5823 160.922 43.2641 159.6 43.5602C158.279 43.8563 156.899 43.7534 155.636 43.2643C155.057 43.1061 154.498 42.8785 153.973 42.5867" stroke="black" stroke-width="2.6488" stroke-miterlimit="10" stroke-linecap="round"/>
<path d="M120.771 15.2364C119.046 15.0516 95.1146 10.216 98.5334 3.50163C100.505 -0.317574 113.194 3.74803 125.822 8.98403C137.834 13.9736 149.846 20.0104 152.618 21.304L153.049 21.4888" stroke="black" stroke-width="2.6488" stroke-miterlimit="10"/>
<path d="M134.693 34.6103C135.951 34.223 137.283 34.1411 138.58 34.3714C139.876 34.6017 141.098 35.1376 142.146 35.9347" stroke="black" stroke-width="2.6488" stroke-miterlimit="10" stroke-linecap="round"/>
<path d="M155.298 35.7493C156.622 36.9364 158.325 37.6133 160.103 37.6589" stroke="black" stroke-width="2.6488" stroke-miterlimit="10" stroke-linecap="round"/>
<path d="M117.968 35.164C120.001 34.24 124.59 34.4864 125.421 36.4884C126.746 39.7224 124.775 46.4368 123.943 50.2868C123.358 52.9048 122.434 57.9868 127.023 56.6316" stroke="black" stroke-width="2.6488" stroke-miterlimit="10" stroke-linecap="round"/>
<path d="M133.337 63.0994C132.789 63.6903 132.116 64.1509 131.367 64.4474C130.618 64.7438 129.812 64.8686 129.008 64.8125C128.204 64.7563 127.423 64.5207 126.723 64.123C126.022 63.7252 125.42 63.1755 124.959 62.5142" stroke="black" stroke-width="2.6488" stroke-miterlimit="10" stroke-linecap="round"/>
<path d="M145.226 408.276C144.949 441.109 144.548 469.445 144.425 482.904C144.425 487.647 144.425 490.543 144.425 491.128" stroke="black" stroke-width="2.6488" stroke-miterlimit="10"/>
<path d="M175.872 277.776C175.503 290.958 184.527 298.905 195.8 302.139C199.033 303.058 202.36 303.606 205.717 303.771" stroke="black" stroke-width="2.6488" stroke-miterlimit="10" stroke-linecap="round"/>
<path d="M194.907 505.973C194.907 503.817 194.907 495.47 194.907 482.873C195.246 444.527 196.016 366.511 195.677 302.139C195.677 290.681 195.523 279.655 195.369 269.368" stroke="black" stroke-width="2.6488" stroke-linecap="round" stroke-linejoin="round"/>
<path d="M123.82 506.157L194.907 506.465C194.907 506.465 194.907 506.25 194.907 506.034" stroke="black" stroke-width="2.6488" stroke-linecap="round" stroke-linejoin="round"/>
<path d="M128.071 293.329C129.764 332.138 135.566 370.658 145.38 408.244C151.879 434.424 159.425 459.464 166.694 482.564V482.872C164.784 483.273 154.898 488.386 144.333 491.435C141.195 492.395 137.98 493.085 134.724 493.498C128.286 494.238 122.157 497.841 123.666 506.095" stroke="black" stroke-width="2.6488" stroke-linecap="round" stroke-linejoin="round"/>
<path d="M78.6368 268.321C80.5464 353.298 99.1496 426.325 116.952 482.874C114.457 483.397 98.472 491.929 84.9816 493.5C78.5444 494.239 72.446 497.842 73.8936 506.035H124.498" stroke="black" stroke-width="2.6488" stroke-linecap="round" stroke-linejoin="round"/>
<path d="M115.812 482.904H116.951H143.963" stroke="black" stroke-width="2.6488" stroke-miterlimit="10"/>
<path d="M166.817 482.904H166.848H194.968" stroke="black" stroke-width="2.6488" stroke-miterlimit="10"/>
<path d="M194.907 506.466V511.826H123.82V506.158V506.004H194.907V506.035V506.466Z" stroke="black" stroke-width="2.6488" stroke-linecap="round" stroke-linejoin="round"/>
<path d="M123.728 506.158V511.826H73.9552V506.097V506.004H123.728V506.158Z" stroke="black" stroke-width="2.6488" stroke-linecap="round" stroke-linejoin="round"/>
<path d="M187.053 194.831C191.58 226.432 196.878 261.359 197.248 268.166L76.3268 267.95C76.7272 246.206 85.5668 185.314 90.6488 153.99C90.6488 153.097 90.926 152.266 91.0492 151.434" stroke="black" stroke-width="2.6488" stroke-linecap="round" stroke-linejoin="round"/>
<path d="M36.6869 95.0705C41.9229 87.4629 37.5185 74.6501 36.0401 69.5681C35.1777 66.4881 30.7117 66.7345 31.1737 71.1081C31.5433 74.8657 32.0669 78.8389 30.5269 80.3481" stroke="black" stroke-width="2.6488" stroke-miterlimit="10" stroke-linecap="round"/>
<path d="M30.3114 80.8404C30.3252 80.7588 30.3252 80.6755 30.3114 80.594V80.594C27.3238 72.124 17.6218 56.724 12.6014 59.804C12.1519 60.0413 11.8095 60.4406 11.6437 60.9211C11.4778 61.4015 11.5009 61.9271 11.7082 62.3912C12.2829 63.6549 13.1111 64.7871 14.1414 65.7176C17.3858 68.574 19.9172 72.1496 21.5334 76.1588" stroke="black" stroke-width="2.6488" stroke-miterlimit="10" stroke-linecap="round"/>
<path d="M11.5543 62.4843C11.0061 61.7652 10.2971 61.1845 9.48414 60.7887C8.67117 60.393 7.77681 60.1931 6.8727 60.2051C6.26455 60.1713 5.66469 60.3584 5.1836 60.7319C4.70251 61.1055 4.37261 61.6403 4.2547 62.2379C3.7619 63.7779 4.83991 65.0099 5.91791 66.0263C9.86866 70.0208 13.2945 74.5023 16.1127 79.3627" stroke="black" stroke-width="2.6488" stroke-miterlimit="10" stroke-linecap="round"/>
<path d="M22.858 101.446C18.546 100.954 15.1888 90.9435 14.0492 87.6479C12.122 82.8439 9.32353 78.4374 5.79483 74.6503C4.50123 73.1411 1.85244 70.6463 2.00644 68.4903C2.10833 68.0798 2.29368 67.6947 2.55094 67.359C2.8082 67.0233 3.13186 66.7441 3.50173 66.539C3.8716 66.3338 4.27975 66.207 4.70077 66.1665C5.12178 66.126 5.54664 66.1726 5.94884 66.3035" stroke="black" stroke-width="2.6488" stroke-miterlimit="10" stroke-linecap="round"/>
<path d="M24.2747 86.4769C23.0427 82.4113 28.0015 80.7173 30.4347 80.8097" stroke="black" stroke-width="2.6488" stroke-miterlimit="10" stroke-linecap="round"/>
<path d="M52.2719 139.022L53.2266 138.159C65.8506 126.442 79.6502 116.059 94.4063 107.175C103.646 102.185 118.738 102.801 118.738 102.801C118.931 101.383 119.471 100.034 120.309 98.8738C121.147 97.7135 122.258 96.7774 123.543 96.1482L124.436 95.8094C134.754 92.9758 153.665 95.0086 156.037 96.4562C158.023 97.9927 159.416 100.169 159.979 102.616C159.979 102.616 185.143 106.312 192.535 112.38C192.535 112.38 214.957 143.026 226.169 167.081C230.296 175.92 228.725 181.341 221.21 185.561C216.682 188.148 202.052 191.721 186.929 194.246C169.096 197.326 150.616 199.482 147.536 197.85C147.262 197.706 147.012 197.519 146.797 197.295C144.241 194.647 142.269 185.807 145.195 181.895C145.784 181.125 146.605 180.563 147.536 180.294C160.441 176.567 174.086 173.487 183.788 171.239C188.285 170.222 191.919 169.36 194.26 168.682C187.884 161.29 185.328 157.594 181.17 152.327C181.17 152.327 182.001 158.056 183.757 171.177" stroke="black" stroke-width="2.6488" stroke-linecap="round" stroke-linejoin="round"/>
<path d="M137.557 179.431C135.709 184.205 126.5 183.373 122.465 182.727C121.048 182.511 115.258 180.848 114.242 178.261C114.228 178.179 114.228 178.096 114.242 178.014" stroke="black" stroke-width="2.6488" stroke-miterlimit="10"/>
<path d="M114.272 178.291C113.828 178.263 113.383 178.331 112.967 178.491C112.552 178.651 112.176 178.899 111.866 179.218C111.556 179.537 111.318 179.919 111.17 180.339C111.022 180.759 110.966 181.205 111.007 181.648C111.161 182.685 111.56 183.67 112.17 184.522C112.781 185.374 113.586 186.067 114.518 186.546C118.935 189.114 124.119 190.031 129.148 189.133" stroke="black" stroke-width="2.6488" stroke-miterlimit="10" stroke-linecap="round"/>
<path d="M114.457 186.577C114.048 186.487 113.625 186.487 113.216 186.578C112.807 186.669 112.423 186.849 112.091 187.105C111.76 187.36 111.488 187.685 111.295 188.057C111.103 188.429 110.994 188.838 110.977 189.257C111.173 190.191 111.585 191.068 112.178 191.816C112.771 192.564 113.53 193.164 114.396 193.569C118.823 195.847 123.861 196.656 128.779 195.879" stroke="black" stroke-width="2.6488" stroke-miterlimit="10" stroke-linecap="round"/>
<path d="M114.334 193.631C113.957 193.506 113.556 193.471 113.163 193.528C112.77 193.586 112.395 193.734 112.07 193.961C111.744 194.188 111.475 194.488 111.286 194.837C111.096 195.186 110.99 195.574 110.977 195.971C110.977 197.45 113.071 199.298 116.829 200.591C122.733 202.337 128.979 202.581 135.001 201.3C138.878 200.593 142.676 199.499 146.335 198.035" stroke="black" stroke-width="2.6488" stroke-miterlimit="10" stroke-linecap="round"/>
<path d="M145.195 182.173C145.75 180.694 142.331 176.536 138.296 176.198" stroke="black" stroke-width="2.6488" stroke-miterlimit="10" stroke-linecap="round"/>
<path d="M112.424 162.893L112.486 163.416L114.149 178.046L114.18 178.231" stroke="black" stroke-width="2.6488" stroke-linecap="round" stroke-linejoin="round"/>
<path d="M139.466 162.893L139.436 162.985L137.896 176.167L137.526 179.463" stroke="black" stroke-width="2.6488" stroke-linecap="round" stroke-linejoin="round"/>
<path d="M112.486 163.416C112.37 163.266 112.305 163.082 112.301 162.892C112.301 161.26 118.461 159.812 125.853 159.812C133.245 159.812 139.436 161.168 139.436 162.892C139.251 164.494 133.276 165.788 125.884 165.788C119.139 165.88 113.564 164.802 112.486 163.416Z" stroke="black" stroke-width="2.6488" stroke-linecap="round" stroke-linejoin="round"/>
<path d="M135.093 201.793L134.23 209.616C131.399 210.334 128.496 210.726 125.576 210.786C122.896 210.762 120.232 210.368 117.66 209.616L116.736 201.331" stroke="black" stroke-width="2.6488" stroke-linecap="round" stroke-linejoin="round"/>
<path d="M34.9315 166.711C31.0199 144.289 25.9995 119.834 23.1351 101.415L36.3791 95.6558C38.4427 102.093 47.4363 125.655 53.0727 138.006" stroke="black" stroke-width="2.6488" stroke-linecap="round" stroke-linejoin="round"/>
<path d="M129.456 155.807C130.239 154.994 130.841 154.026 131.223 152.964C131.606 151.902 131.759 150.772 131.674 149.647C130.926 147.896 130.04 146.207 129.025 144.596C127.085 140.161 129.025 136.927 132.105 133.877" stroke="#E99000" stroke-width="2.6488" stroke-miterlimit="10" stroke-linecap="round"/>
<path d="M121.664 155.807C122.447 154.994 123.049 154.026 123.431 152.964C123.814 151.902 123.967 150.772 123.882 149.647C123.122 147.902 122.236 146.214 121.233 144.596C119.262 140.161 121.233 136.927 124.313 133.877" stroke="#E99000" stroke-width="2.6488" stroke-miterlimit="10" stroke-linecap="round"/>
<path d="M165.739 482.904C161.458 484.567 147.259 491.775 134.939 493.222C128.471 493.962 123.759 496.302 123.882 506.682" stroke="#E99000" stroke-width="2.6488" stroke-linejoin="round"/>
<path d="M143.409 181.186C154.928 175.026 174.209 171.607 184.126 169.236" stroke="#E99000" stroke-width="2.6488" stroke-linecap="square" stroke-linejoin="round"/>
<path d="M189.178 196.433L186.775 196.864C168.603 199.944 148.46 199.944 143.655 197.572" stroke="#E99000" stroke-width="2.6488" stroke-linecap="round" stroke-linejoin="round"/>
</svg>
