<svg width="194" height="301" viewBox="0 0 194 301" fill="none" xmlns="http://www.w3.org/2000/svg">
<path d="M141.707 193.286H177.697H177.805C178.146 187.534 177.861 181.761 176.955 176.07C168.763 178.525 157.278 181.087 143.515 183.938L141.598 184.335C138.632 185.075 134.979 184.769 133.369 188.685C133.225 189.027 133.062 189.623 132.863 190.273H133.225L139.79 190.579C140.105 190.589 140.414 190.677 140.687 190.835C140.961 190.993 141.191 191.215 141.357 191.483C141.524 191.751 141.621 192.056 141.641 192.37C141.661 192.685 141.603 193 141.472 193.286H141.707Z" fill="#0C0C0C"/>
<path d="M138.777 172.75C140.451 173.925 141.771 175.535 142.594 177.406C143.416 179.276 143.71 181.336 143.443 183.361V183.794C157.206 180.943 168.763 178.38 176.883 175.926C185.003 173.472 189.706 171.288 190.465 168.996C196.307 151.329 183.43 115.598 176.684 108.957C172.76 105.113 163.699 102.118 153.933 100.223C153.493 98.973 152.717 97.868 151.69 97.0287C151.551 96.9557 151.406 96.8953 151.256 96.8482C145.324 95.6476 139.211 95.6476 133.279 96.8482C132.929 96.9396 132.59 97.0666 132.266 97.2272C131.626 97.4867 131.063 97.9045 130.629 98.4412C130.196 98.9779 129.906 99.6159 129.788 100.295C129.788 100.295 111.522 102.352 108.086 106.665C103.962 111.79 96.728 129.457 90.7236 156.563L113.276 157.321C114.627 157.379 115.914 157.913 116.907 158.828C117.9 159.743 118.536 160.98 118.702 162.319L122.319 184.913C122.663 181.791 122.898 178.019 126.226 177.027C129.553 176.034 133.912 174.5 138.777 172.75Z" fill="#0C0C0C"/>
<path d="M14.4391 34.427C16.953 34.0841 20.5158 25.6205 14.8731 22.6249L14.2944 22.3C8.04786 29.3849 3.97615 38.1135 2.56514 47.4443C1.15414 56.775 2.46341 66.3138 6.33673 74.9223C5.79417 67.361 4.78137 60.0885 10.5145 55.9379C18.8881 49.8744 29.432 56.786 29.432 56.786C29.432 46.6803 28.8532 37.5309 29.7575 27.4432C29.1448 27.6515 28.4826 27.6663 27.8612 27.4854C27.2398 27.3046 26.6894 26.9369 26.2851 26.4326C25.7485 25.3042 25.6581 24.0154 26.0319 22.8234H25.9415C25.6727 23.1595 25.3353 23.4346 24.9518 23.6306C24.5682 23.8267 24.1473 23.939 23.7169 23.9603C24.6212 27.2988 25.5255 34.7879 14.4752 34.427H14.4391Z" fill="#0C0C0C"/>
<path d="M29.0338 14.0708H29.2327C29.703 13.6377 30.3721 13.6016 31.2764 14.2874H31.5115C31.8469 12.4743 32.3744 10.7018 33.085 8.99988C31.62 9.57735 30.1732 10.227 28.7625 10.9489C29.0566 11.9618 29.1488 13.0225 29.0338 14.0708Z" fill="#0C0C0C"/>
<path d="M42.1642 44.5153C42.7323 48.4276 43.7144 52.2688 45.0941 55.9746C45.4377 54.17 49.5793 51.6977 52.8709 51.6977C64.1381 51.6977 66.3988 62.9764 67.6829 69.3828C67.9542 65.5029 68.2255 61.8215 68.3701 60.5222C68.5148 59.2229 68.2616 57.2739 71.3181 57.328C73.8139 57.328 76.0565 57.328 78.6789 57.328C78.9446 57.3242 79.208 57.3788 79.4501 57.488C79.6923 57.5972 79.9074 57.7584 80.0801 57.96C80.2527 58.1615 80.3788 58.3986 80.4492 58.6543C80.5196 58.91 80.5327 59.1781 80.4875 59.4394C80.4875 59.9086 80.3789 60.468 80.3066 61.0455C81.5234 61.0739 82.6797 61.5812 83.5233 62.4567C84.3668 63.3323 84.8293 64.5051 84.8099 65.7194C84.787 66.2347 84.638 66.7366 84.3758 67.1812C84.6623 67.8621 84.758 68.6079 84.6529 69.3389C84.5478 70.0699 84.2458 70.7587 83.779 71.3318C84.5024 74.5259 81.9705 75.6087 80.1619 75.6448H78.914V75.9516L78.5523 79.3623C78.5342 79.6447 78.4594 79.9206 78.3323 80.1737C78.2052 80.4267 78.0284 80.6517 77.8125 80.8352C77.5965 81.0187 77.3458 81.157 77.0752 81.2418C76.8046 81.3267 76.5197 81.3565 76.2373 81.3293H75.532C75.532 83.6572 77.1235 96.8128 71.6617 99.1949L71.7883 99.4656C81.9745 94.7628 90.2476 86.7327 95.2403 76.7026C100.233 66.6725 101.646 55.2428 99.247 44.3026C96.8475 33.3623 90.7788 23.5665 82.0438 16.5341C73.3089 9.50164 62.4306 5.65366 51.207 5.6261H49.8144C51.8947 7.4471 53.5123 9.73473 54.5341 12.3009C55.5559 14.8672 55.9528 17.6387 55.6922 20.3878C55.2351 20.638 54.7493 20.8319 54.2454 20.9652L54.4081 21.4886C54.4081 22.1202 54.4081 22.7879 54.4081 23.4556C54.9955 23.877 55.4664 24.4399 55.7769 25.0919C56.0875 25.7438 56.2277 26.4636 56.1843 27.1841C56.141 27.9047 55.9156 28.6026 55.5291 29.2128C55.1427 29.823 54.6077 30.3257 53.9741 30.674C53.2326 37.4052 51.3336 43.7574 46.5409 44.7138C45.0884 45.015 43.5833 44.9467 42.1642 44.5153Z" fill="#0C0C0C"/>
<path d="M56.5241 70.1405C56.5241 71.2052 56.8315 89.2874 61.0635 102.623V102.93C64.7674 102.179 68.3721 101.004 71.8063 99.4292L71.6797 99.1586C71.3122 99.3234 70.9221 99.4329 70.5223 99.4834C63.903 100.494 56.5241 70.1405 56.5241 70.1405Z" fill="#0C0C0C"/>
<path d="M51.6952 281.423H51.3696V281.568C49.9228 281.892 40.6992 286.855 32.832 287.775C29.0521 288.227 25.4892 290.302 26.3212 294.994H68.0626V281.333L51.6952 281.423Z" fill="#0C0C0C"/>
<path d="M115.085 249.446C114.235 251.702 111.956 260.995 107.851 267.113C105.717 270.235 104.957 274.331 109.081 276.804L136.408 245.331L126.425 236.669C122.824 241.108 118.959 245.326 114.85 249.301L115.085 249.446Z" fill="#0C0C0C"/>
<path d="M113.765 223.441H175.382V299H84.412V229.361" stroke="#0C0C0C" stroke-width="2.6488" stroke-linejoin="round"/>
<path d="M141.526 183.668C169.776 177.857 188.946 173.201 190.52 168.473C196.361 150.806 183.484 115.057 176.738 108.434C172.814 104.572 163.753 101.594 153.987 99.6816C153.547 98.4317 152.771 97.3267 151.744 96.4874C150.352 95.6573 139.392 94.6828 133.333 96.2529C132.479 96.4286 131.695 96.8479 131.076 97.4597C130.456 98.0716 130.028 98.8497 129.843 99.6996C129.843 99.6996 111.576 101.757 108.14 106.088C103.998 111.231 96.7462 128.447 90.7056 155.697" stroke="#0C0C0C" stroke-width="2.6488" stroke-linejoin="round"/>
<path d="M176.956 175.493C180.844 202.201 173.212 214.996 157.875 221.511C155.105 222.541 152.21 223.202 149.267 223.478L113.747 223.333" stroke="#0C0C0C" stroke-width="2.6488" stroke-miterlimit="10"/>
<path d="M55.5475 210.051C53.4858 219.471 53.1241 237.229 51.3336 282.019" stroke="#0C0C0C" stroke-width="2.6488" stroke-miterlimit="10"/>
<path d="M55.9815 162.085L61.6603 193.9C61.8542 195.168 62.4696 196.335 63.4077 197.212C64.3458 198.089 65.552 198.626 66.8328 198.737L117.942 201.949C118.822 201.962 119.693 201.78 120.492 201.415C121.292 201.05 122 200.511 122.564 199.839C123.129 199.166 123.537 198.377 123.757 197.527C123.977 196.678 124.005 195.79 123.838 194.929L118.702 161.778C118.536 160.441 117.899 159.206 116.906 158.294C115.912 157.382 114.626 156.852 113.276 156.798L61.6603 154.993C60.7931 155.013 59.9408 155.222 59.1634 155.606C58.3861 155.99 57.7026 156.54 57.1611 157.216C56.6196 157.892 56.2334 158.679 56.0296 159.52C55.8258 160.361 55.8093 161.237 55.9815 162.085Z" stroke="#0C0C0C" stroke-width="2.6488" stroke-miterlimit="10"/>
<path d="M120.257 201.606L140.405 193.63C140.773 193.444 141.072 193.145 141.257 192.776C141.441 192.407 141.501 191.988 141.428 191.583C141.355 191.177 141.152 190.806 140.851 190.524C140.549 190.243 140.164 190.066 139.753 190.02L133.17 189.66" stroke="#0C0C0C" stroke-width="2.6488" stroke-miterlimit="10"/>
<path d="M177.426 192.691L141.707 192.763" stroke="#0C0C0C" stroke-width="2.6488" stroke-miterlimit="10"/>
<path d="M141.58 183.668C138.614 184.39 134.961 184.101 133.351 188.017C132.809 189.298 131.959 194.297 129.499 192.294C128.468 191.446 128.848 188.937 129.047 187.746C129.389 185.685 130.094 183.699 131.127 181.881" stroke="#0C0C0C" stroke-width="2.6488" stroke-miterlimit="10" stroke-linecap="round"/>
<path d="M126.859 180.51C125.539 182.892 123.35 193.575 128.848 192.059" stroke="#0C0C0C" stroke-width="2.6488" stroke-miterlimit="10" stroke-linecap="round"/>
<path d="M125.575 191.085C125.575 191.392 123.603 192.095 123.241 190.886" stroke="#0C0C0C" stroke-width="2.6488" stroke-miterlimit="10" stroke-linecap="round"/>
<path d="M107.67 155.155C108.339 150.842 112.498 137.109 114.904 127.707" stroke="#E99000" stroke-width="2.6488" stroke-miterlimit="10" stroke-linecap="square"/>
<path d="M143.895 183.252C143.895 177.514 141.634 174.067 138.307 172.172" stroke="#E99000" stroke-width="2.6488" stroke-miterlimit="10"/>
<path d="M161.727 198.556C161.438 208.445 170.246 213.317 179.234 213.768" stroke="#0C0C0C" stroke-width="2.6488" stroke-miterlimit="10" stroke-linecap="round"/>
<path d="M150.026 57.9592C149.466 53.8627 148.724 47.7993 145.867 44.6232C136.697 34.4091 126.081 55.2162 124.363 61.9113C122.771 68.1733 131.597 82.2311 134.147 83.2417C137.963 84.7576 143.407 81.1664 145.143 77.6113" stroke="#0C0C0C" stroke-width="2.6488" stroke-miterlimit="10" stroke-linecap="round"/>
<path d="M151.256 96.9208C152.049 86.5797 151.964 76.1903 151.002 65.8635" stroke="#0C0C0C" stroke-width="2.6488" stroke-miterlimit="10"/>
<path d="M135.178 83.0609C134.165 87.3378 133.948 92.7697 132.158 96.6315" stroke="#0C0C0C" stroke-width="2.6488" stroke-miterlimit="10"/>
<path d="M148.543 59.8363C153.607 52.4013 157.333 62.1822 155.398 64.7448C154.132 66.387 151.473 66.0802 149.972 65.3042" stroke="#0C0C0C" stroke-width="2.6488" stroke-miterlimit="10" stroke-linecap="round"/>
<path d="M130.566 49.2791C129.951 49.2791 115.429 46.3918 117.472 42.4216C119.805 37.874 147.765 52.2206 149.447 53.0508" stroke="#0C0C0C" stroke-width="2.6488" stroke-miterlimit="10"/>
<path d="M150.912 61.2975C151.684 62.0051 152.686 62.4091 153.734 62.4344" stroke="#0C0C0C" stroke-width="2.6488" stroke-miterlimit="10" stroke-linecap="round"/>
<path d="M139.41 66.8197C138.991 66.8197 138.651 66.4804 138.651 66.0618C138.651 65.6432 138.991 65.3038 139.41 65.3038C139.83 65.3038 140.17 65.6432 140.17 66.0618C140.17 66.4804 139.83 66.8197 139.41 66.8197Z" fill="#0C0C0C"/>
<path d="M130.259 66.8197C129.839 66.8197 129.499 66.4804 129.499 66.0618C129.499 65.6432 129.839 65.3038 130.259 65.3038C130.678 65.3038 131.018 65.6432 131.018 66.0618C131.018 66.4804 130.678 66.8197 130.259 66.8197Z" fill="#0C0C0C"/>
<path d="M133.17 63.8782C134.056 65.6828 133.026 68.6784 132.682 70.6093C132.465 71.9267 132.121 74.4893 134.816 73.6411" stroke="#0C0C0C" stroke-width="2.6488" stroke-miterlimit="10" stroke-linecap="round"/>
<path d="M51.6949 281.423H67.9719C71.268 263.062 75.6279 244.908 81.0297 227.05" stroke="#0C0C0C" stroke-width="2.6488" stroke-miterlimit="10"/>
<path d="M51.3334 281.55C49.8866 281.875 40.663 286.837 32.7958 287.758C28.9978 288.209 25.4168 290.32 26.285 295.138L68.0444 295.337" stroke="#0C0C0C" stroke-width="2.6488" stroke-linecap="round" stroke-linejoin="round"/>
<path d="M68.0807 298.73H26.2127V295.301H68.0807V298.73Z" stroke="#0C0C0C" stroke-width="2.6488" stroke-linecap="round" stroke-linejoin="round"/>
<path d="M68.0626 281.387V295.011" stroke="#0C0C0C" stroke-width="2.6488" stroke-miterlimit="10"/>
<path d="M114.542 249.753C113.783 252.081 111.793 261.23 107.742 267.131C105.789 270 104.975 273.646 108.068 276.154C108.315 276.357 108.632 276.458 108.952 276.434C109.272 276.411 109.571 276.265 109.786 276.028L135.811 246.45C136.021 246.207 136.128 245.891 136.107 245.571C136.087 245.25 135.942 244.951 135.702 244.736L126.786 237.12" fill="#0C0C0C"/>
<path d="M114.542 249.753C113.783 252.081 111.793 261.23 107.742 267.131C105.789 270 104.975 273.646 108.068 276.154C108.315 276.357 108.632 276.458 108.952 276.434C109.272 276.411 109.571 276.265 109.786 276.028L135.811 246.45C136.021 246.207 136.128 245.891 136.107 245.571C136.087 245.25 135.942 244.951 135.702 244.736L126.786 237.12" stroke="#0C0C0C" stroke-width="2.6488" stroke-miterlimit="10"/>
<path d="M142.213 74.9042C141.906 77.4126 138.271 77.4126 137.619 76.7088" stroke="#0C0C0C" stroke-width="2.6488" stroke-miterlimit="10" stroke-linecap="round"/>
<path d="M164.874 128.357C168.727 140.484 173.537 155.805 172.561 157.7C171.584 159.594 152.848 166.723 138.198 171.974" stroke="#E99000" stroke-width="2.6488" stroke-miterlimit="10" stroke-linecap="round"/>
<path d="M143.732 182.64C158.436 180.6 170.101 178.272 179.017 176.197" stroke="#E99000" stroke-width="2.6488" stroke-miterlimit="10" stroke-linecap="square"/>
<path d="M54.0099 30.2948C53.2684 37.026 51.3695 43.3601 46.5768 44.3346C44.3809 44.5916 42.1579 44.1941 40.1881 43.192C38.2183 42.19 36.59 40.6285 35.5085 38.7043" stroke="#0C0C0C" stroke-width="2.6488" stroke-miterlimit="10" stroke-linecap="round"/>
<path d="M54.4803 21.0013C54.4803 21.6149 54.4803 22.2826 54.4803 22.9684" stroke="#0C0C0C" stroke-width="2.6488" stroke-miterlimit="10" stroke-linecap="round"/>
<path d="M32.1807 21.2171C27.804 14.1431 24.5486 23.4549 26.2486 25.8911C26.8325 26.5115 27.6173 26.9061 28.4645 27.0052C29.3117 27.1043 30.1667 26.9014 30.8785 26.4324" stroke="#0C0C0C" stroke-width="2.6488" stroke-miterlimit="10" stroke-linecap="round"/>
<path d="M28.5638 21.4523C28.8308 22.4591 28.7281 23.528 28.2742 24.466" stroke="#0C0C0C" stroke-width="2.6488" stroke-miterlimit="10" stroke-linecap="round"/>
<path d="M30.8426 18.2762C31.8366 19.5639 33.1988 20.5204 34.7491 21.0192C36.9574 21.3232 39.207 21.0181 41.2538 20.1369C43.3006 19.2556 45.0665 17.832 46.36 16.0204C47.1919 17.825 47.6441 19.3048 49.3622 20.0808C50.3668 20.5374 51.4628 20.7585 52.5662 20.7272C53.6697 20.6959 54.7513 20.4131 55.7283 19.9003C57.2294 8.36892 43.9908 -4.49791 34.8214 5.71615C31.982 8.89226 31.2044 14.9557 30.6618 19.0522" stroke="#0C0C0C" stroke-width="2.6488" stroke-linecap="round" stroke-linejoin="round"/>
<path d="M31.2764 13.8184C28.4008 11.6529 27.8763 16.814 28.5817 18.384" stroke="#0C0C0C" stroke-width="2.6488" stroke-miterlimit="10" stroke-linecap="round"/>
<path d="M19.3943 20.4055C19.5466 21.0804 19.8794 21.7015 20.3574 22.2027C20.8354 22.7038 21.4406 23.0663 22.1086 23.2514C22.7766 23.4366 23.4825 23.4375 24.151 23.2542C24.8196 23.0708 25.4258 22.71 25.9051 22.2101" stroke="#0C0C0C" stroke-width="2.6488" stroke-linecap="round" stroke-linejoin="round"/>
<path d="M29.0338 13.53C29.5402 8.98243 25.2901 0.645157 14.9633 4.65138C6.89712 7.77335 7.1684 18.0235 14.9633 22.0839C20.6059 25.0795 17.025 33.5792 14.5111 33.904" stroke="#0C0C0C" stroke-width="2.6488" stroke-linecap="round" stroke-linejoin="round"/>
<path d="M14.439 33.9035C25.5616 34.1742 24.585 26.7933 23.6807 23.4368" stroke="#0C0C0C" stroke-width="2.6488" stroke-linecap="round" stroke-linejoin="round"/>
<path d="M41.0249 30.7455C38.7176 30.7455 36.8471 28.8388 36.8471 26.4867C36.8471 24.1345 38.7176 22.2278 41.0249 22.2278C43.3322 22.2278 45.2026 24.1345 45.2026 26.4867C45.2026 28.8388 43.3322 30.7455 41.0249 30.7455Z" stroke="#0C0C0C" stroke-width="2.6488" stroke-linecap="round" stroke-linejoin="round"/>
<path d="M52.0386 30.7455C49.7313 30.7455 47.8609 28.8388 47.8609 26.4867C47.8609 24.1345 49.7313 22.2278 52.0386 22.2278C54.3459 22.2278 56.2164 24.1345 56.2164 26.4867C56.2164 28.8388 54.3459 30.7455 52.0386 30.7455Z" stroke="#0C0C0C" stroke-width="2.6488" stroke-linecap="round" stroke-linejoin="round"/>
<path d="M32.2893 21.2893C32.2893 21.2893 37.1905 24.4474 37.2266 24.4474" stroke="#0C0C0C" stroke-width="2.6488" stroke-miterlimit="10" stroke-linecap="round"/>
<path d="M45.2387 26.5591C45.2387 26.2145 45.3759 25.884 45.6201 25.6403C45.8643 25.3967 46.1955 25.2598 46.5409 25.2598C46.8862 25.2598 47.2174 25.3967 47.4616 25.6403C47.7058 25.884 47.843 26.2145 47.843 26.5591" stroke="#0C0C0C" stroke-width="2.6488" stroke-linecap="round" stroke-linejoin="round"/>
<path d="M39.5778 36.5201C39.6657 36.9457 39.8475 37.3463 40.11 37.693C40.3725 38.0396 40.7091 38.3235 41.0954 38.524C41.4817 38.7245 41.9079 38.8365 42.343 38.852C42.7782 38.8675 43.2113 38.786 43.6109 38.6135" stroke="#0C0C0C" stroke-width="2.6488" stroke-linecap="round" stroke-linejoin="round"/>
<path d="M47.6077 26.1622C47.6543 27.062 47.7814 27.9558 47.9875 28.833C48.096 29.5368 49.0907 33.507 49.1992 34.1025C49.3077 34.698 47.0651 34.8604 46.5225 34.9507" stroke="#0C0C0C" stroke-width="2.6488" stroke-linecap="round" stroke-linejoin="round"/>
<path d="M14.0774 86.436C19.1052 81.0222 36.6482 65.5567 37.3716 65.0334C38.4878 64.4584 39.7332 64.1788 40.9887 64.2213C44.6021 63.9022 48.2392 63.9627 51.84 64.4018C53.6486 64.6183 54.0826 67.0907 51.9847 67.235C50.574 67.235 49.0187 67.1267 47.5899 67.1267C45.6954 67.0538 43.7982 67.1081 41.911 67.2892" stroke="#0C0C0C" stroke-width="2.6488" stroke-miterlimit="10" stroke-linecap="round"/>
<path d="M41.8927 67.3791C43.944 67.1347 46.0241 67.395 47.9514 68.1371C50.8089 69.3101 49.127 71.9267 48.6025 72.4681" stroke="#0C0C0C" stroke-width="2.6488" stroke-miterlimit="10" stroke-linecap="round"/>
<path d="M42.0555 70.1947C43.4843 70.0864 48.9461 69.7616 48.6386 73.2444C48.5482 74.1828 46.4684 77.792 43.9364 77.1785C43.7767 77.1571 43.6235 77.101 43.4878 77.0142C43.3521 76.9275 43.2371 76.8121 43.1509 76.6762C43.0647 76.5403 43.0094 76.3872 42.9889 76.2277C42.9684 76.0681 42.9831 75.9061 43.0321 75.7528C43.213 75.0851 43.9726 74.7242 44.4247 74.255C44.8768 73.7858 44.9673 73.7678 44.6598 73.479C43.7311 73.2204 42.7491 73.2204 41.8204 73.479C35.4181 76.5649 25.3264 90.4784 22.5412 93.7628" stroke="#0C0C0C" stroke-width="2.6488" stroke-miterlimit="10" stroke-linecap="round"/>
<path d="M73.3615 68.6428C73.019 68.6979 72.668 68.6315 72.3696 68.4551C72.0711 68.2787 71.8441 68.0035 71.728 67.6773C71.6118 67.3511 71.614 66.9947 71.734 66.6699C71.854 66.3452 72.0843 66.0727 72.3849 65.8998C74.7745 65.4302 77.1903 65.1048 79.6191 64.9254C80.0082 64.9212 80.3819 64.7733 80.6681 64.5103C81.1564 63.8606 80.4329 62.9403 79.7095 62.9222" stroke="#0C0C0C" stroke-width="2.6488" stroke-miterlimit="10"/>
<path d="M80.3787 60.5757C81.5939 60.5994 82.7502 61.1027 83.5942 61.9754C84.4383 62.848 84.9014 64.0189 84.882 65.2316C84.7192 67.8843 81.934 68.6964 80.9032 68.8408C79.8723 68.9851 72.837 68.4799 71.8604 68.8408C70.8838 69.2017 70.1784 71.3853 71.8604 71.9627C74.793 72.2485 77.7415 72.3389 80.6861 72.2334C81.3549 72.2857 82.0259 72.1645 82.6338 71.8815C83.2417 71.5986 83.7659 71.1635 84.1555 70.6185C84.5451 70.0736 84.7867 69.4374 84.857 68.7717C84.9272 68.1061 84.8237 67.4336 84.5564 66.8196" stroke="#0C0C0C" stroke-width="2.6488" stroke-miterlimit="10"/>
<path d="M72.1859 72.089C71.9107 72.1957 71.6743 72.3829 71.5075 72.626C71.3408 72.8691 71.2516 73.1569 71.2516 73.4515C71.2516 73.7461 71.3408 74.0338 71.5075 74.2769C71.6743 74.52 71.9107 74.7072 72.1859 74.8139C74.8579 75.1098 77.546 75.2364 80.234 75.1929C82.3138 75.1929 84.8639 73.9838 83.8511 70.4648" stroke="#0C0C0C" stroke-width="2.6488" stroke-miterlimit="10"/>
<path d="M78.9136 75.5183L78.5519 78.911C78.5337 79.1941 78.4589 79.4708 78.3321 79.7247C78.2052 79.9787 78.0287 80.2047 77.8131 80.3897C77.5974 80.5746 77.3469 80.7146 77.0762 80.8016C76.8056 80.8886 76.5202 80.9207 76.2369 80.8961L68.6048 80.3908C68.0657 80.2733 67.5932 79.9521 67.2863 79.4945C66.9795 79.0369 66.8622 78.4785 66.959 77.9365C67.3208 73.1723 68.008 62.4169 68.2974 59.9807C68.4601 58.6633 68.1889 56.7324 71.2272 56.8046C73.7411 56.8046 75.9837 56.8046 78.6061 56.8046C78.8719 56.8007 79.1352 56.8553 79.3774 56.9646C79.6195 57.0738 79.8346 57.2349 80.0073 57.4365C80.18 57.6381 80.306 57.8752 80.3764 58.1309C80.4468 58.3866 80.4599 58.6546 80.4147 58.916C80.2338 60.7206 79.8721 63.3011 79.6913 65.0877" stroke="#0C0C0C" stroke-width="2.6488" stroke-miterlimit="10"/>
<path d="M6.2643 74.363C5.72173 66.6935 4.92597 57.2012 11.2378 53.7725C20.9317 48.5211 29.3233 56.2809 29.3233 56.2809C29.3233 46.1931 28.7446 37.0257 29.6489 26.9561" stroke="#0C0C0C" stroke-width="2.6488" stroke-linejoin="round"/>
<path d="M67.7009 68.9676C66.4349 62.5793 64.2104 51.1742 52.8708 51.1742C49.5792 51.1742 45.8717 52.69 45.094 55.4511C43.7 51.7188 42.7176 47.8462 42.1642 43.9016" stroke="#0C0C0C" stroke-width="2.6488" stroke-linejoin="round"/>
<path d="M61.0634 102.19C56.8314 88.7456 56.4878 70.6635 56.524 69.5988C56.524 69.5988 63.9029 99.9522 70.5764 99.0499C77.25 98.1476 75.6042 82.8987 75.6042 80.7512" stroke="#0C0C0C" stroke-width="2.6488" stroke-linejoin="round"/>
<path d="M31.6384 69.9775L20.3349 70.14C20.3349 70.14 20.3349 73.4063 20.3349 80.336" stroke="#0C0C0C" stroke-width="2.6488" stroke-linejoin="round"/>
<path d="M56.5241 69.5988L49.4888 69.7074" stroke="#0C0C0C" stroke-width="2.6488" stroke-linejoin="round"/>
<path d="M28.7625 10.5339C30.1913 9.81205 31.6381 9.14435 33.1392 8.54883" stroke="#0C0C0C" stroke-width="2.6488" stroke-miterlimit="10"/>
<path d="M49.8143 5.1388H51.2792C62.5505 5.1338 73.4832 8.98264 82.2559 16.0441C91.0285 23.1055 97.1114 32.9532 99.491 43.9464C101.871 54.9395 100.403 66.4144 95.3336 76.4592C90.2639 86.504 81.8979 94.5121 71.6293 99.1494C61.3608 103.787 49.8098 104.773 38.9009 101.944C27.992 99.1156 18.3838 92.6424 11.6772 83.6033C4.97061 74.5642 1.57052 63.505 2.04345 52.2682C2.51637 41.0314 6.83374 30.2956 14.2763 21.8494" stroke="#0C0C0C" stroke-width="2.6488" stroke-miterlimit="10"/>
<path d="M59.8335 181.899C58.8568 182.206 57.8983 182.549 56.9398 182.91C47.0289 186.681 43.5746 199.26 51.9301 206.767C58.26 212.451 111.612 247.533 114.976 249.247L126.623 236.795C126.623 236.795 102.045 210.881 91.5736 200.433" stroke="#0C0C0C" stroke-width="2.6488" stroke-miterlimit="10"/>
<path d="M55.5472 69.5448C55.7823 69.0936 57.2111 54.5124 49.6513 51.6611" stroke="#0C0C0C" stroke-width="2.6488" stroke-linejoin="round"/>
<path d="M49.38 63.6616C49.6151 62.254 48.7832 55.7214 45.7629 55.2341" stroke="#0C0C0C" stroke-width="2.6488" stroke-linejoin="round"/>
<path d="M20.8048 70.1942C20.5697 69.7611 19.1409 55.1618 26.7188 52.3105" stroke="#0C0C0C" stroke-width="2.6488" stroke-linejoin="round"/>
<path d="M26.2309 70.2123C25.8511 67.9205 26.1043 57.165 29.3597 56.1725" stroke="#0C0C0C" stroke-width="2.6488" stroke-linejoin="round"/>
<path d="M133.17 63.8783C133.17 63.8783 130.367 62.0737 128.758 63.8783" stroke="#0C0C0C" stroke-width="2.6488" stroke-miterlimit="10" stroke-linecap="round"/>
<path d="M141.815 63.8786C141.134 63.5258 140.377 63.3417 139.609 63.3417C138.841 63.3417 138.084 63.5258 137.402 63.8786" stroke="#0C0C0C" stroke-width="2.6488" stroke-linecap="round" stroke-linejoin="round"/>
<path d="M139.008 247.581L111.523 279.095L108.931 276.845L136.416 245.33L139.008 247.581Z" stroke="#0C0C0C" stroke-width="2.6488" stroke-linecap="round" stroke-linejoin="round"/>
</svg>
