<svg width="24" height="24" viewBox="0 0 24 24" fill="none" xmlns="http://www.w3.org/2000/svg">
<g id="Group">
<path id="Path" fill-rule="evenodd" clip-rule="evenodd" d="M5.49726 12.2501C5.50777 10.8714 6.63212 9.76116 8.01091 9.7681C9.3897 9.7751 10.5028 10.8966 10.4993 12.2754C10.4958 13.6542 9.37714 14.7702 7.99833 14.7702C7.33221 14.7686 6.69409 14.502 6.22486 14.0292C5.75562 13.5564 5.49383 12.9163 5.49726 12.2501V12.2501Z" stroke="#0C0C0C" stroke-width="1.5" stroke-linecap="round" stroke-linejoin="round"/>
<path id="Path_2" d="M14.0014 9.74913C13.9001 9.74858 13.8085 9.80918 13.7694 9.90259C13.7302 9.996 13.7513 10.1038 13.8227 10.1756C13.8942 10.2474 14.0018 10.2691 14.0955 10.2304C14.1891 10.1918 14.2502 10.1005 14.2502 9.99923C14.2507 9.93298 14.2247 9.86927 14.1779 9.8223C14.1312 9.77532 14.0676 9.74898 14.0014 9.74913" stroke="#0C0C0C" stroke-width="1.5" stroke-linecap="round" stroke-linejoin="round"/>
<path id="Path_3" d="M17.1138 9.74913C17.0125 9.74858 16.9209 9.80918 16.8818 9.90259C16.8426 9.996 16.8637 10.1038 16.9351 10.1756C17.0066 10.2474 17.1142 10.2691 17.2079 10.2304C17.3015 10.1918 17.3626 10.1005 17.3626 9.99923C17.3631 9.93298 17.3371 9.86927 17.2903 9.8223C17.2436 9.77532 17.1801 9.74898 17.1138 9.74913" stroke="#0C0C0C" stroke-width="1.5" stroke-linecap="round" stroke-linejoin="round"/>
<path id="Path_4" fill-rule="evenodd" clip-rule="evenodd" d="M2.99625 20.3785V19.7532C3.00029 18.3736 4.11768 17.2562 5.49729 17.2522H10.4994C11.879 17.2562 12.9964 18.3736 13.0004 19.7532V20.3785C12.9994 20.7234 12.7201 21.0027 12.3752 21.0038H3.62151C3.27661 21.0027 2.99726 20.7234 2.99625 20.3785V20.3785Z" stroke="#0C0C0C" stroke-width="1.5" stroke-linecap="round" stroke-linejoin="round"/>
<path id="Path_5" d="M8.27524 5.99751C10.0323 3.48256 13.2231 2.40613 16.1446 3.34277C19.066 4.27941 21.0362 7.01048 21.0034 10.0782C20.9705 13.146 18.9425 15.8343 16.0017 16.7083" stroke="#0C0C0C" stroke-width="1.5" stroke-linecap="round" stroke-linejoin="round"/>
</g>
</svg>
