<svg width="26" height="32" viewBox="0 0 26 32" fill="none" xmlns="http://www.w3.org/2000/svg">
<path id="Vector" d="M22.2413 8.46255L14.4249 2.60012C13.9416 2.2377 13.354 2.04175 12.7499 2.04175C12.1459 2.04175 11.5579 2.2377 11.0746 2.60012L3.25818 8.46255C2.73811 8.8526 2.31597 9.35837 2.02524 9.93983C1.73451 10.5213 1.58325 11.1625 1.58325 11.8126V27.1668C1.58325 27.9071 1.87724 28.6172 2.40078 29.1407C2.92432 29.6643 3.63452 29.9584 4.37492 29.9584H21.1249C21.8653 29.9584 22.5752 29.6643 23.0987 29.1407C23.6223 28.6172 23.9166 27.9071 23.9166 27.1668V11.8126C23.9166 11.1625 23.765 10.5213 23.4743 9.93983C23.1835 9.35837 22.7614 8.8526 22.2413 8.46255V8.46255Z" stroke="#5D5D5D" stroke-width="2.77292" stroke-miterlimit="10"/>
</svg>
