<svg width="24" height="22" viewBox="0 0 24 22" fill="none" xmlns="http://www.w3.org/2000/svg">
    <path
        d="M19 -0.00012207H5C3.6744 0.00146579 2.40356 0.52876 1.46622 1.4661C0.528882 2.40344 0.00158786 3.67428 0 4.99988L0 16.9999C0.00158786 18.3255 0.528882 19.5963 1.46622 20.5337C2.40356 21.471 3.6744 21.9983 5 21.9999H19C20.3256 21.9983 21.5964 21.471 22.5338 20.5337C23.4711 19.5963 23.9984 18.3255 24 16.9999V4.99988C23.9984 3.67428 23.4711 2.40344 22.5338 1.4661C21.5964 0.52876 20.3256 0.00146579 19 -0.00012207ZM5 1.99988H19C19.5988 2.00106 20.1835 2.18139 20.679 2.51768C21.1744 2.85397 21.5579 3.33082 21.78 3.88688L14.122 11.5459C13.5584 12.1072 12.7954 12.4223 12 12.4223C11.2046 12.4223 10.4416 12.1072 9.878 11.5459L2.22 3.88688C2.44215 3.33082 2.82561 2.85397 3.32105 2.51768C3.81648 2.18139 4.40121 2.00106 5 1.99988ZM19 19.9999H5C4.20435 19.9999 3.44129 19.6838 2.87868 19.1212C2.31607 18.5586 2 17.7955 2 16.9999V6.49988L8.464 12.9599C9.40263 13.8961 10.6743 14.4219 12 14.4219C13.3257 14.4219 14.5974 13.8961 15.536 12.9599L22 6.49988V16.9999C22 17.7955 21.6839 18.5586 21.1213 19.1212C20.5587 19.6838 19.7956 19.9999 19 19.9999Z"
        fill="#0c0c0c" />
</svg>