<svg width="29" height="30" viewBox="0 0 29 30" fill="none" xmlns="http://www.w3.org/2000/svg">
<g id="Group 291">
<path id="Vector" d="M19.8332 7.1252C19.8332 5.64441 19.2448 4.22426 18.1978 3.17719C17.1507 2.13011 15.7306 1.54187 14.2498 1.54187C12.769 1.54187 11.349 2.13011 10.3019 3.17719C9.25483 4.22426 8.6665 5.64441 8.6665 7.1252V9.91687C8.6665 11.3977 9.25483 12.8178 10.3019 13.8649C11.349 14.912 12.769 15.5002 14.2498 15.5002C15.7306 15.5002 17.1507 14.912 18.1978 13.8649C19.2448 12.8178 19.8332 11.3977 19.8332 9.91687V7.1252Z" stroke="#5D5D5D" stroke-width="2.69798" stroke-miterlimit="10"/>
<path id="Vector_2" d="M1.6875 29.4585C3.80917 23.7076 8.66667 19.6876 14.25 19.6876C19.8333 19.6876 24.6908 23.7076 26.8125 29.4585" stroke="#5D5D5D" stroke-width="2.69798" stroke-miterlimit="10"/>
</g>
</svg>
